<?xml version="1.0" encoding="UTF-8"?>
<svg id="Layer_1" data-name="Layer 1" xmlns="http://www.w3.org/2000/svg" viewBox="0 0 300 300">
  <g id="J9idsl.tif">
    <g>
      <path d="m105.9,291.31c0-6.63-.04-13.27.04-19.9.02-1.55-.48-2.44-1.78-3.35-13.35-9.26-20.26-22.02-20.35-38.31-.09-15.02-.06-30.04,0-45.06.04-9.32,10.14-15.28,17.65-11.82,0,6.61,0,13.32,0,20.03,0,5.62,0,11.24,0,16.86,0,4.13,1.62,6.38,4.52,6.31,2.8-.07,4.34-2.26,4.34-6.21,0-24.51-.03-49.02.02-73.53.02-10.07,10.71-16.31,19.52-11.55,1.8.97,2.62,2.11,2.6,4.3-.1,17.97-.06,35.94-.05,53.91,0,.92-.07,1.87.11,2.75.46,2.23,1.9,3.68,4.17,3.74,2.42.07,3.95-1.38,4.45-3.73.21-.97.12-2.02.12-3.03,0-22.3.04-44.6-.05-66.9,0-2.17.62-3.73,2.6-4.24,2.79-.72,5.73-1.65,8.52-1.41,5.16.44,6.6,2.5,6.6,7.67,0,21.56,0,43.12,0,64.69,0,.74-.03,1.48.01,2.21.16,2.8,1.96,4.76,4.37,4.79,2.4.03,4.31-1.92,4.45-4.7.1-1.93.03-3.87.03-5.8,0-16.68.04-33.36-.05-50.04-.01-2.05.58-3.56,2.44-4.06,2.78-.75,5.71-1.7,8.5-1.52,5.2.34,6.77,2.53,6.77,7.8,0,17.05,0,34.09,0,51.14,0,.74-.03,1.48,0,2.21.13,2.97,1.98,5,4.48,4.96,2.5-.04,4.34-2.07,4.36-5.07.05-9.12.02-18.25.02-27.37,0-5.07.08-10.14-.04-15.2-.04-1.74.61-2.75,2.02-3.53,4.53-2.52,9.16-2.68,13.7-.22,4.35,2.36,6.38,6.3,6.39,11.16.04,27.64.33,55.29-.12,82.93-.25,15.03-7.47,26.89-19.76,35.53-1.61,1.13-2.31,2.2-2.26,4.2.14,6.45.06,12.9.06,19.35h-88.44Z" fill="#35a591"/>
      <path d="m225.28,53.07v16.75c0,21.28-.05,42.57.06,63.85.01,2.6-.83,3.94-3.44,4.37-5.95-8.58-14.17-11.76-24.55-9.73-.38-.66-.74-1.26-1.08-1.89-4.67-8.73-13.46-13.15-23.26-11.64-1.46.23-2.4.16-3.26-1.48-4.16-7.95-10.93-12.23-19.85-12.14-8.9.09-15.54,4.48-19.67,12.47-.21.41-.44.8-.43.77-4.12.25-8.05-.06-11.71.8-9.82,2.32-16.37,10.92-16.61,21.16-.1,4.57-.02,9.13-.02,14.15-6.15-3.25-11.91-6.26-17.64-9.32-2.91-1.55-6.88-2.52-8.36-4.97-1.48-2.45-.51-6.41-.51-9.72-.02-23.31,0-46.62,0-69.93v-3.52c1.04.49,1.82.83,2.57,1.23,22.59,11.95,45.21,23.84,67.72,35.94,3.48,1.87,6.23,1.93,9.72.05,22.52-12.1,45.14-24,67.74-35.96.72-.38,1.45-.71,2.59-1.27Z" fill="#35a591"/>
      <path d="m220.47,45.6c-11.46,6.08-22.57,11.98-33.69,17.87-11.53,6.11-23.07,12.19-34.59,18.32-1.28.68-2.26,1.03-3.76.22-22.22-11.86-44.48-23.62-66.73-35.41-.56-.3-1.09-.65-1.84-1.1.84-.51,1.51-.95,2.21-1.32,22.09-11.7,44.17-23.41,66.3-35.04.88-.46,2.38-.63,3.2-.2,22.61,11.88,45.18,23.85,67.74,35.81.32.17.59.42,1.17.86Z" fill="#35a591"/>
    </g>
  </g>
</svg>