<?xml version="1.0" encoding="UTF-8"?>
<svg id="Layer_1" data-name="Layer 1" xmlns="http://www.w3.org/2000/svg" viewBox="0 0 300 300">
  <g id="I62XXQ.tif">
    <g>
      <path d="m97.06,291.31c-.39-.27-.76-.56-1.16-.79-2.89-1.66-4.18-4.31-3.54-7.26.64-2.91,3.23-4.98,6.63-5.06,4.07-.09,8.15-.02,12.46-.02v-38.28h76.99v38.27c3.72,0,7.09,0,10.46,0,5.11,0,7.73,1.46,8.66,4.8.9,3.22-.47,5.69-4.63,8.35h-105.87Z" fill="#35a591"/>
      <path d="m297.63,175.59H2.53c-.06-1.2-.16-2.27-.16-3.33,0-49.61-.01-99.23,0-148.84,0-9.7,5.13-14.72,14.91-14.72,88.51,0,177.02,0,265.53,0,9.71,0,14.81,5.07,14.81,14.82.01,49.61,0,99.23,0,148.84v3.23Z" fill="#35a591"/>
      <path d="m297.63,188.72c0,5.04,0,10.02,0,15,0,3.21.05,6.42-.02,9.62-.19,8.5-5.37,13.6-13.82,13.6-35.29,0-70.57,0-105.86,0-53.73,0-107.46,0-161.19,0-9.28,0-14.33-4.98-14.38-14.23-.04-7.91,0-15.83,0-23.99h295.27Zm-147.69,25.26c3.56.03,6.29-2.66,6.32-6.22.03-3.57-2.65-6.29-6.21-6.32-3.57-.03-6.29,2.65-6.32,6.22-.03,3.57,2.65,6.3,6.21,6.33Z" fill="#35a591"/>
    </g>
  </g>
</svg>