<?xml version="1.0" encoding="UTF-8"?>
<svg id="Layer_1" data-name="Layer 1" xmlns="http://www.w3.org/2000/svg" viewBox="0 0 300 300">
  <g id="IN5kfN.tif">
    <g>
      <path d="m79.1,146.84c-20.33,0-40.66,0-60.99,0-5,0-8.17-2.97-8.22-7.97-.09-9.04-.08-18.08-.08-27.13,0-31.21.02-62.42.07-93.63,0-1.36.12-2.78.55-4.06,1.13-3.38,3.82-4.74,7.17-5.05.41-.04.83-.03,1.24-.03,40.07,0,80.13,0,120.2,0,4.77,0,7.85,2.4,8.69,6.77.12.62.12,1.28.12,1.92,0,40.3,0,80.6,0,120.9,0,5.03-2.73,7.97-7.76,8.25-2.01.11-4.04-.04-6.05-.04-18.31,0-36.62,0-54.94,0v.07Zm53.57-14.9c.03-.51.07-.82.07-1.13,0-5.78,0-11.56,0-17.35,0-29.32-.01-58.65.01-87.97,0-1.1-.23-1.5-1.43-1.5-34.37.03-68.74.02-103.11.02-3.48,0-3.5,0-3.5,3.42,0,29.05,0,58.1,0,87.15,0,5.42.05,10.83.02,16.25,0,1,.29,1.29,1.27,1.2,1.14-.11,2.29-.08,3.44-.08,33.27,0,66.54,0,99.81,0,1.1,0,2.19,0,3.43,0Z" fill="#f1c269"/>
      <path d="m201.15,45.33c2.81,2.85,5.44,5.47,8.01,8.15,3.07,3.2,3.29,7.39.61,10.42-2.62,2.98-7.19,3.42-10.32.97-.65-.51-1.25-1.09-1.83-1.67-6.27-6.26-12.53-12.53-18.79-18.8-.49-.49-.96-.98-1.4-1.51-2.8-3.39-2.89-7.14.18-10.29,7.04-7.23,14.19-14.36,21.4-21.43,2.61-2.56,5.94-2.76,8.85-.95,2.79,1.73,4.25,5.07,3.25,8.2-.44,1.38-1.39,2.69-2.38,3.77-2.18,2.36-4.54,4.54-6.83,6.8-.32.31-.62.65-1.14,1.2.91.04,1.57.1,2.22.1,10.56-.02,21.11-.15,31.67-.04,25.6.26,47.07,16.49,54.03,40.7,1.53,5.33,2.19,10.79,2.26,16.3.1,7.53.03,15.05.02,22.58,0,3.07-.92,5.67-3.69,7.37-2.8,1.71-5.83,1.49-8.46-.5-2-1.51-2.9-3.47-2.9-5.91,0-8.12.06-16.25-.02-24.37-.19-17.8-8.57-30.4-24.54-37.97-4.6-2.18-9.56-3.15-14.68-3.14-11.29.02-22.58,0-33.87,0-.49,0-.98,0-1.65,0Z" fill="#f1c269"/>
      <path d="m98.95,269.73c-.71,0-1.43,0-2.14,0-10.42.02-20.84.16-31.25.02-16.54-.24-30.68-6.17-41.88-18.5-8.24-9.08-12.86-19.82-14.1-32.03-.98-9.71-.42-19.44-.49-29.16-.02-3.4,1.23-6.34,4.62-7.8,5.1-2.19,10.42,1.37,10.45,6.99.05,8.54-.04,17.07.05,25.61.19,19.04,13.77,35.44,32.43,39.16,2.1.42,4.28.61,6.42.62,11.38.06,22.76.03,34.14.03.49,0,.98,0,1.9,0-2.37-2.39-4.4-4.59-6.61-6.6-2.32-2.11-4.28-4.32-3.93-7.73.29-2.82,1.67-4.91,4.32-6.06,2.77-1.21,5.37-.85,7.76.96.73.55,1.42,1.17,2.06,1.82,6.44,6.47,12.91,12.91,19.29,19.45,3.75,3.85,3.69,7.76-.1,11.59-6.58,6.65-13.22,13.26-19.85,19.87-.45.45-.94.88-1.45,1.27-3.2,2.48-7.12,2.21-9.94-.66-2.62-2.66-2.83-6.78-.22-9.73,2.34-2.64,4.93-5.05,7.43-7.55.41-.4.91-.71,1.38-1.06l-.3-.52Z" fill="#f1c269"/>
      <path d="m167.2,191.23c0,4.06-3.33,7.38-7.45,7.45-3.95.06-7.51-3.49-7.48-7.45.03-4.03,3.47-7.43,7.52-7.43,4.11,0,7.42,3.32,7.42,7.43Z" fill="#f1c269"/>
      <path d="m167.2,222.04c-.03,4.01-3.37,7.35-7.37,7.35-4.07,0-7.58-3.41-7.57-7.36.02-4.02,3.61-7.56,7.61-7.51,4.14.06,7.35,3.35,7.32,7.51Z" fill="#f1c269"/>
      <path d="m167.21,283.42c0,4.08-3.37,7.56-7.34,7.57-3.93,0-7.53-3.55-7.55-7.43-.01-4.08,3.44-7.48,7.58-7.46,4.12.02,7.3,3.21,7.31,7.32Z" fill="#f1c269"/>
      <path d="m167.21,252.71c0,4.08-3.39,7.48-7.43,7.46-3.9-.02-7.51-3.55-7.5-7.34,0-4.07,3.53-7.55,7.6-7.52,3.97.03,7.33,3.42,7.34,7.4Z" fill="#f1c269"/>
      <path d="m167.19,160.62c-.02,4.1-3.34,7.33-7.52,7.31-3.9-.02-7.42-3.53-7.41-7.39.01-4.03,3.5-7.39,7.68-7.38,3.94,0,7.27,3.42,7.25,7.46Z" fill="#f1c269"/>
      <path d="m259.41,283.53c0,4.02-3.47,7.51-7.44,7.49-3.84-.02-7.24-3.46-7.27-7.35-.03-4.1,3.44-7.6,7.49-7.57,4.07.03,7.22,3.28,7.21,7.44Z" fill="#f1c269"/>
      <path d="m190.57,276.09c3.91-.02,7.35,3.42,7.37,7.38.02,4.03-3.5,7.55-7.55,7.55-3.74,0-7.24-3.57-7.27-7.4-.03-3.91,3.53-7.51,7.45-7.53Z" fill="#f1c269"/>
      <path d="m213.95,283.47c0-3.9,3.51-7.39,7.41-7.37,3.92.01,7.3,3.48,7.28,7.47-.02,4.03-3.49,7.49-7.48,7.46-3.84-.03-7.23-3.58-7.22-7.55Z" fill="#f1c269"/>
      <path d="m282.78,291.02c-3.87-.03-7.34-3.59-7.31-7.5.03-4.07,3.44-7.46,7.48-7.43,3.84.02,7.23,3.56,7.24,7.55,0,3.91-3.51,7.41-7.41,7.38Z" fill="#f1c269"/>
      <path d="m282.84,260.17c-3.95-.02-7.4-3.46-7.38-7.38.02-4.01,3.47-7.49,7.44-7.48,3.92,0,7.33,3.57,7.3,7.61-.03,3.85-3.49,7.26-7.36,7.25Z" fill="#f1c269"/>
      <path d="m190.48,167.93c-3.79.01-7.3-3.45-7.37-7.29-.08-3.98,3.51-7.51,7.61-7.47,3.95.04,7.21,3.36,7.21,7.33,0,4.07-3.36,7.41-7.45,7.43Z" fill="#f1c269"/>
      <path d="m282.67,229.42c-3.93-.11-7.37-3.7-7.22-7.54.16-4.02,3.74-7.48,7.61-7.35,3.92.13,7.28,3.81,7.13,7.8-.14,3.85-3.7,7.2-7.52,7.09Z" fill="#f1c269"/>
      <path d="m282.96,183.85c3.89.02,7.27,3.53,7.24,7.52-.03,3.85-3.53,7.31-7.36,7.28-3.96-.03-7.38-3.46-7.39-7.4-.01-4,3.46-7.43,7.5-7.41Z" fill="#f1c269"/>
      <path d="m228.65,160.5c.02,4.09-3.34,7.44-7.44,7.43-3.87-.01-7.24-3.42-7.26-7.34-.03-4.01,3.34-7.37,7.47-7.44,3.82-.07,7.21,3.38,7.23,7.36Z" fill="#f1c269"/>
      <path d="m282.75,167.92c-3.97-.03-7.31-3.44-7.28-7.44.02-3.97,3.41-7.3,7.43-7.31,3.83-.01,7.34,3.59,7.3,7.48-.04,3.98-3.43,7.3-7.45,7.27Z" fill="#f1c269"/>
      <path d="m259.41,160.53c0,4.01-3.31,7.37-7.31,7.4-4.01.03-7.39-3.41-7.37-7.49.02-3.93,3.48-7.3,7.47-7.28,3.84.02,7.21,3.47,7.22,7.38Z" fill="#f1c269"/>
    </g>
  </g>
  <g>
    <path d="m72.1,100.1H28.73c.5-4.28,2.01-8.31,4.53-12.09,2.52-3.77,7.25-8.23,14.18-13.36,4.24-3.15,6.95-5.54,8.13-7.17s1.77-3.18,1.77-4.65c0-1.59-.59-2.94-1.76-4.06-1.17-1.12-2.64-1.69-4.42-1.69s-3.35.58-4.53,1.74-1.96,3.21-2.36,6.14l-14.48-1.17c.57-4.07,1.61-7.25,3.12-9.53,1.51-2.28,3.65-4.03,6.41-5.25s6.57-1.83,11.45-1.83,9.05.58,11.87,1.74,5.05,2.94,6.67,5.34,2.43,5.09,2.43,8.08c0,3.17-.93,6.2-2.79,9.09-1.86,2.89-5.24,6.06-10.13,9.51-2.91,2.01-4.86,3.42-5.84,4.22s-2.14,1.86-3.46,3.16h22.57v11.78Z" fill="#f1c269"/>
    <path d="m80.83,48.06h23.89c4.71,0,8.51.64,11.41,1.92s5.29,3.11,7.19,5.5c1.89,2.39,3.27,5.17,4.12,8.34s1.28,6.53,1.28,10.08c0,5.56-.63,9.87-1.9,12.94s-3.02,5.63-5.27,7.7-4.66,3.45-7.24,4.14c-3.53.95-6.72,1.42-9.58,1.42h-23.89v-52.04Zm16.08,11.78v28.43h3.94c3.36,0,5.75-.37,7.17-1.12s2.53-2.05,3.34-3.9,1.21-4.87,1.21-9.03c0-5.51-.9-9.29-2.7-11.32s-4.78-3.05-8.94-3.05h-4.01Z" fill="#f1c269"/>
  </g>
  <g>
    <path d="m185.61,214.59l-13.67-2.45c1.14-4.35,3.32-7.69,6.55-10.01s7.8-3.48,13.72-3.48c6.79,0,11.7,1.27,14.73,3.8,3.03,2.53,4.54,5.71,4.54,9.55,0,2.25-.62,4.28-1.85,6.11-1.23,1.82-3.09,3.42-5.57,4.79,2.01.5,3.55,1.08,4.61,1.74,1.73,1.06,3.07,2.47,4.03,4.21.96,1.74,1.44,3.82,1.44,6.23,0,3.03-.79,5.93-2.38,8.71-1.59,2.78-3.87,4.92-6.85,6.42s-6.9,2.25-11.75,2.25-8.47-.56-11.2-1.67-4.98-2.74-6.74-4.88-3.12-4.83-4.06-8.08l14.45-1.92c.57,2.91,1.45,4.93,2.64,6.05s2.72,1.69,4.56,1.69c1.94,0,3.56-.71,4.85-2.13s1.93-3.31,1.93-5.68-.62-4.28-1.86-5.61-2.93-1.99-5.06-1.99c-1.14,0-2.7.28-4.69.85l.75-10.33c.8.12,1.43.18,1.88.18,1.89,0,3.47-.6,4.74-1.81,1.27-1.21,1.9-2.64,1.9-4.29s-.47-2.85-1.42-3.8-2.25-1.42-3.9-1.42-3.09.51-4.15,1.54-1.79,2.83-2.17,5.41Z" fill="#f1c269"/>
    <path d="m222.63,199.54h23.89c4.71,0,8.51.64,11.41,1.92s5.29,3.11,7.19,5.5,3.27,5.17,4.12,8.34c.85,3.17,1.28,6.53,1.28,10.08,0,5.56-.63,9.87-1.9,12.94-1.27,3.06-3.02,5.63-5.27,7.7s-4.66,3.45-7.24,4.14c-3.53.95-6.72,1.42-9.58,1.42h-23.89v-52.04Zm16.08,11.78v28.43h3.94c3.36,0,5.75-.37,7.17-1.12s2.53-2.05,3.34-3.9,1.21-4.87,1.21-9.03c0-5.51-.9-9.29-2.7-11.32-1.8-2.04-4.78-3.05-8.94-3.05h-4.01Z" fill="#f1c269"/>
  </g>
</svg>