<?xml version="1.0" encoding="UTF-8"?>
<svg id="Layer_1" data-name="Layer 1" xmlns="http://www.w3.org/2000/svg" viewBox="0 0 300 300">
  <g id="cz1OXz.tif">
    <g>
      <path d="m200,221.61c0,5.51.02,10.9,0,16.3-.02,3.85-.05,3.85-3.94,3.85-4.97,0-9.93,0-14.9,0-.48,0-.95-.04-1.52-.07v-20.09h20.37Z" fill="#f26a4d" stroke="#f16a4d" stroke-linecap="round" stroke-linejoin="round" stroke-width="11"/>
      <path d="m277.59,163.91c-6.42,0-12.74,0-19.06.01-.96,0-1.08-.47-1.08-1.28.03-5.94.04-11.87-.02-17.81,0-.99.29-1.27,1.22-1.26,6.27.03,12.54.01,18.93.01v20.33Z" fill="#f26a4d" stroke="#f16a4d" stroke-linecap="round" stroke-linejoin="round" stroke-width="11"/>
      <path d="m238.89,104.64v13.6c-.38.03-.66.07-.95.08-3.99.02-7.98.02-11.97.06-.68,0-.83-.25-.82-.86.02-3.96,0-7.91,0-11.87,0-.46-.18-1.02.64-1.02,4.35.01,8.69,0,13.09,0Z" fill="#f26a4d" stroke="#f16a4d" stroke-linecap="round" stroke-linejoin="round" stroke-width="11"/>
      <path d="m218.57,182.6c.67-.04,1.2-.1,1.72-.11,5.7,0,11.39.03,17.09-.03,1.24-.01,1.53.39,1.52,1.59-.06,6.18-.03,12.36-.03,18.73-.3.02-.77.07-1.23.07-5.89,0-11.78-.04-17.67.04-1.34.02-1.59-.4-1.56-1.67.12-5.74.12-11.49.16-17.23,0-.43,0-.85,0-1.39Z" fill="#f26a4d" stroke="#f16a4d" stroke-linecap="round" stroke-linejoin="round" stroke-width="11"/>
      <path d="m193.45,266.77v7.4c-2.26,0-4.52.03-6.78-.04-.24,0-.66-.55-.66-.84-.01-1.89.02-3.79.17-5.68.02-.3.65-.79,1.01-.8,2.03-.08,4.07-.04,6.27-.04Z" fill="#f26a4d" stroke="#f16a4d" stroke-linecap="round" stroke-linejoin="round" stroke-width="11"/>
      <path d="m193.45,46.73v7.41c-2.23,0-4.4.03-6.56-.04-.27,0-.74-.5-.76-.79-.11-1.89-.17-3.79-.14-5.68,0-.31.52-.86.81-.87,2.18-.07,4.36-.04,6.65-.04Z" fill="#f26a4d" stroke="#f16a4d" stroke-linecap="round" stroke-linejoin="round" stroke-width="11"/>
      <path d="m232.42,157.37h-7.26v-7.36c2.2,0,4.36-.02,6.53.03.25,0,.69.43.7.67.05,2.17.03,4.34.03,6.67Z" fill="#f26a4d" stroke="#f16a4d" stroke-linecap="round" stroke-linejoin="round" stroke-width="11"/>
      <path d="m225.13,79.73v-7.46h7.39c0,2.27.03,4.48-.05,6.7,0,.27-.63.72-.98.73-2.07.07-4.15.03-6.36.03Z" fill="#f26a4d" stroke="#f16a4d" stroke-linecap="round" stroke-linejoin="round" stroke-width="11"/>
      <path d="m271.3,118.66c-2.36,0-4.54.03-6.71-.04-.29-.01-.81-.56-.81-.87-.03-1.94.02-3.88.15-5.81.02-.29.56-.78.88-.79,1.84-.07,3.69-.08,5.53.01.34.02.91.55.93.87.08,2.13.04,4.26.04,6.63Z" fill="#f26a4d" stroke="#f16a4d" stroke-linecap="round" stroke-linejoin="round" stroke-width="11"/>
      <path d="m263.76,188.89h7.53c0,2.33.03,4.6-.04,6.86,0,.22-.6.58-.93.59-1.85.07-3.7.1-5.55.05-.34,0-.96-.43-.97-.68-.08-2.23-.04-4.46-.04-6.82Z" fill="#f26a4d" stroke="#f16a4d" stroke-linecap="round" stroke-linejoin="round" stroke-width="11"/>
      <path d="m225.17,227.84h7.34c0,2.28.03,4.5-.04,6.71,0,.27-.61.72-.95.73-2.08.07-4.16.03-6.34.03v-7.48Z" fill="#f26a4d" stroke="#f16a4d" stroke-linecap="round" stroke-linejoin="round" stroke-width="11"/>
      <g id="rQlpgE.tif">
        <path d="m157.07,30.4c0,6.28-.01,12.57.01,18.85,0,.86-.25,1.18-1.15,1.24-43.81,2.69-81.25,33.9-90.78,76.71-8.42,37.82,2.2,70.3,30.31,96.81,13.94,13.14,30.8,20.91,49.68,24.19,3.49.61,7.04.9,10.58,1.23,1.1.1,1.47.42,1.46,1.57-.07,12.42-.09,24.84-.08,37.26,0,1.19-.35,1.55-1.52,1.42-2.08-.24-4.18-.3-6.25-.56-2.2-.28-3.2-1.2-3.59-3.41-1.01-5.8-1.97-11.61-2.9-17.42-.66-4.15-1.5-5.21-5.66-6.12-10.81-2.37-21.05-6.24-30.71-11.64-2.33-1.3-4.58-2.76-6.83-4.21-2.2-1.42-4.28-1.29-6.38.2-4.56,3.25-9.13,6.48-13.7,9.72-.48.34-.94.7-1.42,1.03-2.34,1.64-3.66,1.74-5.76-.14-3.95-3.54-7.81-7.19-11.61-10.89-1.92-1.87-3.67-3.9-5.41-5.94-2.13-2.49-2.22-3.84-.35-6.52,3.26-4.67,6.61-9.27,9.93-13.9,2.53-3.53,2.56-4.77.18-8.44-7.34-11.3-12.29-23.59-15.21-36.72-.83-3.75-2.08-4.81-5.87-5.43-5.76-.94-11.51-1.91-17.26-2.89-2.53-.43-3.6-1.63-3.84-4.2-.75-8.12-.75-16.24,0-24.36.24-2.65,1.18-3.78,3.78-4.23,5.85-1.01,11.7-1.99,17.57-2.89,3.1-.48,4.96-2,5.63-5.19,2.39-11.52,6.61-22.36,12.48-32.55,1.04-1.81,2.14-3.6,3.31-5.33,1.62-2.4,1.35-4.6-.31-6.86-3.34-4.55-6.6-9.16-9.89-13.76-.45-.63-.87-1.29-1.25-1.97-.87-1.53-.72-3.03.39-4.34,5.34-6.35,11.06-12.32,17.4-17.68,2.32-1.97,3.78-1.98,6.31-.2,4.69,3.32,9.33,6.7,14.01,10.03,3.39,2.42,4.6,2.47,8.06.24,11.41-7.34,23.74-12.43,37-15.32,3.69-.8,4.79-2.05,5.37-5.73.93-5.91,1.9-11.81,2.9-17.71.38-2.21,1.46-3.23,3.69-3.48,2.18-.24,4.37-.34,6.55-.55.99-.09,1.24.29,1.23,1.24-.04,6.28-.02,12.57-.02,18.85-.03,0-.07,0-.1,0Z" fill="#f26a4d" stroke="#f16a4d" stroke-linecap="round" stroke-linejoin="round" stroke-width="11"/>
      </g>
      <path d="m157.67,74.19c-42.21,0-71.12,39.43-71.12,73.69s14.38,77.93,71.2,77.93" fill="none" stroke="#f16a4d" stroke-linecap="round" stroke-linejoin="round" stroke-width="11"/>
      <g id="c7d6WK.tif">
        <path d="m206.83,117.35c-.06,4.88-1.12,9.34-3.34,13.53-1.61,3.04-3.72,5.71-6.33,7.93-3.67,3.12-7.89,5.2-12.64,6.14-4.1.81-8.19.72-12.23-.37-.61-.16-.83.18-1.15.5-4.52,4.52-9.03,9.03-13.55,13.55-8.3,8.3-16.61,16.58-24.88,24.91-1.69,1.7-3.53,3.12-5.8,3.95-6.9,2.54-14.59-.88-17.22-7.78-2.05-5.39-1.06-10.37,2.98-14.45,12.95-13.08,26.01-26.06,39.05-39.06.64-.64.81-1.14.61-2.05-2.04-9.33.12-17.66,6.42-24.79,4.26-4.82,9.73-7.63,16.09-8.73,4.87-.84,9.56-.21,14.15,1.47,1.2.44,2.01,1.23,2.14,2.56.1,1.02-.37,1.81-1.07,2.51-2.25,2.24-4.5,4.49-6.74,6.74-2.53,2.53-5.05,5.06-7.59,7.58-.29.28-.35.54-.27.93.53,2.38,1.03,4.77,1.56,7.15.04.18.27.41.44.45,2.47.56,4.95,1.09,7.43,1.6.17.03.43-.09.56-.22,1.18-1.15,2.34-2.32,3.5-3.48,3.61-3.61,7.23-7.23,10.84-10.84.5-.5,1.05-.94,1.76-1.11,1.33-.31,2.67.36,3.21,1.71.46,1.15.84,2.34,1.16,3.54.27,1.03.45,2.09.6,3.14.15,1.04.22,2.09.31,2.99Z" fill="#f26a4d"/>
      </g>
    </g>
  </g>
</svg>