<?xml version="1.0" encoding="UTF-8"?>
<svg id="Layer_1" data-name="Layer 1" xmlns="http://www.w3.org/2000/svg" viewBox="0 0 300 300">
  <g>
    <path d="m38,290.64c19.99-.18,34.78.18,54.77,0,7.55.05,10.7-2.86,10.7-12.17v-15.39c0-4.41,1.1-13.96,10.07-13.96,33.37.18,78.7,1.91,112.07,2.08,14.17,0,16.82-10.21,16.82-17.12,0-9.77-.14-42.61-.14-44.29" fill="none" stroke="#f26a4d" stroke-miterlimit="10" stroke-width="10"/>
    <g>
      <path d="m71.89,207.12c0,18.26-18.14,36.96-33.06,59.44-15.84-21.56-33.06-41.18-33.06-59.44s14.8-33.06,33.06-33.06,33.06,14.8,33.06,33.06Z" fill="#f26a4d"/>
      <circle cx="38.83" cy="208.95" r="9.64" fill="#fff"/>
    </g>
    <g>
      <path d="m274.5,124.08c0,17.71-17.59,35.85-32.07,57.66-15.37-20.91-32.07-39.95-32.07-57.66s14.36-32.07,32.07-32.07,32.07,14.36,32.07,32.07Z" fill="#f26a4d"/>
      <circle cx="242.43" cy="127.52" r="9.35" fill="#fff"/>
    </g>
    <rect x="97.38" y="1.55" width="15.75" height="234.25" rx="7.2" ry="7.2" fill="#f26a4d"/>
    <path d="m121.99,1.55s15.01,28.86,58.53,27.19c43.53-1.67,83.26-11.29,110.03,21.75,0,0-35.97-11.29-81.56,24.68-45.59,35.97-65.25,32.62-87,27.19V1.55Z" fill="#f26a4d"/>
  </g>
  <g id="Kp8ORa.tif">
    <g>
      <path d="m119.87,203.36c1.72-.78,2.98-1.99,3.87-3.59.67-1.2.86-2.51.87-3.85.02-3.47.02-6.95,0-10.42,0-.85-.4-1.34-1.12-1.43-.9-.12-1.52.42-1.52,1.35,0,1.59.01,3.17.01,4.76,0,2.08.05,4.16-.03,6.24-.12,3.22-2.98,4.86-5.2,4.89-2.65.03-4.97-2.07-5.15-4.76-.09-1.38-.05-2.76-.05-4.14,0-2.42,0-4.84,0-7.27,0-2.49.54-4.86,1.73-7.05,1.33-2.44,3.28-4.26,5.82-5.36,1.88-.81,3.88-1.04,5.92-.82,3.02.33,5.83,1.27,8.44,2.81,1.92,1.13,3.52,2.6,4.74,4.52,1.2,1.89,3,3,5.27,3.08,2.48.1,4.97.05,7.46.06,1.37,0,2.74,0,4.11,0,.84,0,1.23.39,1.23,1.24,0,12.29,0,24.58,0,36.87,0,.87-.39,1.25-1.3,1.25-2.32,0-4.64,0-6.96,0-1.98,0-3.96-.03-5.93.02-1.7.04-3.17.71-4.43,1.86-1.1,1.01-2.25,1.93-3.6,2.58-1.14.55-2.32.87-3.59.87-3.68,0-7.36,0-11.03,0-.06,0-.12-.02-.26-.04,1.56-1.75,2.1-3.78,1.93-6.01-.17-2.23-1.06-4.12-2.84-5.56,2.15-1.33,3.45-3.17,3.78-5.66.33-2.49-.33-4.63-2.2-6.42Z" fill="#f26a4d" stroke="#fff" stroke-miterlimit="10"/>
      <path d="m104.73,203.98c3.28,0,6.57,0,9.85,0,1.05,0,2,.28,2.86.87,2.99,2.06,2.73,6.45-.47,8.21-.84.46-1.73.61-2.67.6-5.78-.01-11.57-.01-17.35-.02-.94,0-1.88.04-2.81-.07-1.98-.23-3.38-1.3-3.98-3.22-.58-1.89-.28-3.65,1.2-5.07.88-.85,1.99-1.27,3.21-1.28,3.39-.02,6.77,0,10.16,0,0,0,0,0,0-.01Z" fill="#f26a4d" stroke="#fff" stroke-miterlimit="10"/>
      <path d="m116.17,201.34c-.25,0-5.7,0-5.88,0-6.04,0-12.07,0-18.11-.01-1.25,0-2.44-.25-3.41-1.07-1.58-1.35-2.18-3.08-1.71-5.12.47-2.02,1.99-3.4,3.98-3.69.55-.08,1.11-.13,1.67-.13,5.19-.01,10.37,0,15.56,0,.7,0,3.06,0,3.06.68,0,1.36,0,2.71,0,4.07,0,1.92.98,3.53,2.23,5,.02.03,2.54.17,2.61.28Z" fill="#f26a4d" stroke="#fff" stroke-miterlimit="10"/>
      <path d="m107.91,216.27c1.64,0,3.27,0,4.91,0,1.08,0,2.11.23,3.06.77,1.49.86,2.33,2.18,2.58,3.83.54,3.51-2.2,6.11-5.21,6.18-3.48.07-6.97.04-10.46,0-1.54-.02-2.98-.49-4.02-1.69-1.45-1.69-1.78-3.65-.99-5.72.76-2.01,2.3-3.16,4.43-3.3,1.89-.12,3.8-.03,5.7-.03,0-.02,0-.03,0-.05Z" fill="#f26a4d" stroke="#fff" stroke-miterlimit="10"/>
      <path d="m112.81,178.29c-.22.67-.44,1.29-.63,1.91-.51,1.69-.59,3.44-.61,5.19,0,.95-.02,1.9,0,2.85,0,.36-2.72.45-3.06.45-3.9,0-7.81,0-11.71,0-1.06,0-2.09-.06-3.08-.52-2.04-.96-3.26-3.18-2.94-5.43.31-2.2,2.11-4.05,4.3-4.39.41-.06.83-.1,1.25-.1,4.5,0,9,.01,13.5.02.12,0,2.85.02,2.99.03Z" fill="#f26a4d" stroke="#fff" stroke-miterlimit="10"/>
    </g>
  </g>
</svg>