<?xml version="1.0" encoding="UTF-8"?>
<svg id="Layer_1" data-name="Layer 1" xmlns="http://www.w3.org/2000/svg" viewBox="0 0 300 300">
  <g id="nZtb8v.tif">
    <g>
      <path d="m16.2,151.04c3.36-4.06,6.42-8.43,10.14-12.13,25.71-25.58,56.05-43.08,91.47-51.29,28.71-6.66,56.93-4.16,84.49,5.99,30.56,11.26,56.96,28.7,78.41,53.37,3.81,4.38,3.85,7.96,0,12.27-28.47,31.84-63.41,52.56-105.49,60.65-27.52,5.29-54.3,1.75-80.3-8.16-28.3-10.78-52.96-27.07-73.41-49.52-1.97-2.16-3.55-4.67-5.3-7.01,0-1.39,0-2.78,0-4.18Zm133.64,55.38c29.4,0,53.22-23.77,53.27-53.12.05-29.56-23.7-53.43-53.19-53.46-29.55-.03-53.39,23.74-53.4,53.25-.01,29.52,23.8,53.35,53.32,53.34Zm55.49-11.78c22.97-10.16,42.37-24.05,59.58-41.52-17.2-17.6-36.67-31.44-59.59-41.5,17.82,24.25,18.25,58.08,0,83.02Zm-170.48-41.37c17.11,17.47,36.54,31.29,59.23,41.26-17.96-27.74-17.97-55.08-.24-82.45-15.31,4.86-47.49,27.3-58.99,41.19Z" fill="#f26a4d"/>
      <path d="m151.91,19.51c4.33,1.92,6.07,5.19,5.82,9.95-.27,5.28-.03,10.59-.07,15.88-.04,4.83-3.3,8.21-7.84,8.21-4.53,0-7.8-3.39-7.83-8.21-.04-5.29.2-10.6-.08-15.88-.25-4.76,1.5-8.02,5.82-9.95h4.18Z" fill="#f26a4d"/>
      <path d="m89.44,275.22c-6.54,0-10.6-5.95-8-11.02,3.45-6.71,7.27-13.24,11.19-19.7,2.08-3.42,6.73-4.31,10.18-2.43,3.55,1.94,5.32,6.44,3.39,10.08-3.53,6.68-7.36,13.2-11.22,19.69-1.37,2.3-3.72,3.31-5.54,3.38Z" fill="#f26a4d"/>
      <path d="m200.66,241.15c2.92.09,5.24,1.31,6.71,3.83,3.59,6.15,7.16,12.32,10.59,18.56,2.07,3.76.75,8.38-2.74,10.53-3.67,2.26-8.44,1.33-10.75-2.5-3.81-6.32-7.54-12.7-10.93-19.25-2.7-5.22,1.32-11.21,7.12-11.16Z" fill="#f26a4d"/>
      <path d="m99.08,65.09c-3.03-.03-5.39-1.34-6.9-3.94-3.53-6.08-7.05-12.18-10.45-18.33-2.14-3.88-.82-8.56,2.82-10.7,3.71-2.19,8.41-1.16,10.71,2.68,3.7,6.18,7.32,12.43,10.69,18.79,2.84,5.36-.92,11.43-6.87,11.5Z" fill="#f26a4d"/>
      <path d="m200.72,65.09c-5.83.06-9.89-5.9-7.2-11.11,3.42-6.63,7.2-13.09,11.08-19.46,2.25-3.69,6.97-4.54,10.57-2.36,3.43,2.08,4.89,6.64,2.92,10.27-3.48,6.41-7.15,12.72-10.84,19.01-1.42,2.41-3.72,3.57-6.53,3.65Z" fill="#f26a4d"/>
      <path d="m141.99,269.78c0-3.13-.05-6.25.01-9.38.09-4.42,3.46-7.69,7.82-7.69,4.37,0,7.77,3.26,7.82,7.69.07,6.25.08,12.51,0,18.76-.06,4.37-3.57,7.62-7.94,7.57-4.21-.04-7.54-3.31-7.7-7.57,0-.17-.01-.35-.01-.52,0-2.95,0-5.91,0-8.86Z" fill="#f26a4d"/>
      <path d="m149.81,126.43c14.82,0,26.66,11.79,26.71,26.62.04,14.92-11.9,26.85-26.81,26.78-14.82-.08-26.62-11.95-26.58-26.75.04-14.82,11.87-26.63,26.68-26.64Zm-.05,15.72c-5.98.03-10.94,5.04-10.91,11.03.03,5.98,5.05,10.95,11.03,10.92,5.97-.03,10.95-5.06,10.92-11.03-.03-5.98-5.05-10.95-11.03-10.92Z" fill="#f26a4d"/>
    </g>
  </g>
  <path d="m149.89,98.23l-.08,28.19,26.71,26.62-25.09,26.78-1.58,26.6s49.64,8.9,53.27-53.12c3.64-62.02-53.22-55.06-53.22-55.06Z" fill="#f26a4d"/>
  <path d="m157.09,97.55l-4.9,28.43-25.12,26.14,28.44,27.71,1.58,26.6s-59.19,8.9-62.83-53.12,62.83-55.74,62.83-55.74Z" fill="#f26a4d"/>
</svg>