<?xml version="1.0" encoding="UTF-8"?>
<svg id="Layer_1" data-name="Layer 1" xmlns="http://www.w3.org/2000/svg" viewBox="0 0 300 300">
  <g>
    <path d="m178.44,87.54v-.62c0-2.97,0-5.94,0-8.91,0-.41.05-.83.16-1.22.61-2.23,3.07-3.15,5.01-1.8,1.12.78,2.13,1.73,3.18,2.62,5.98,5.11,11.96,10.23,17.94,15.35.72.61,1.43,1.24,2.12,1.89,1.76,1.64,1.75,3.68-.07,5.25-4.98,4.3-9.98,8.58-14.98,12.86-2.5,2.15-5.01,4.29-7.54,6.41-.43.36-.91.7-1.43.9-2.18.84-4.37-.73-4.39-3.14-.02-3.06,0-6.11,0-9.17,0-.19,0-.37,0-.64h-.67c-11.78,0-23.56,0-35.34,0-1.75,0-3.05-.89-3.46-2.38-.11-.39-.16-.81-.16-1.22-.01-4.16,0-8.31,0-12.47,0-2.39,1.34-3.72,3.75-3.72,11.71,0,23.43,0,35.14,0,.22,0,.44,0,.74,0Z" fill="#f26a4d"/>
    <path d="m132.2,61.15h.72c11.71,0,23.43,0,35.14,0,2.42,0,3.78,1.34,3.78,3.76,0,4.07,0,8.14,0,12.21,0,2.53-1.3,3.82-3.86,3.82-11.7,0-23.39,0-35.09,0-.2,0-.41,0-.69,0,0,.21,0,.39,0,.57,0,3.04,0,6.08,0,9.12,0,1.85-1,3.1-2.76,3.45-1.03.21-1.95-.13-2.73-.78-1.55-1.31-3.06-2.66-4.6-3.98-4.3-3.67-8.61-7.32-12.91-11-1.78-1.52-3.53-3.06-5.29-4.6-1.9-1.67-1.9-3.72.02-5.37,5.18-4.46,10.37-8.92,15.56-13.37,2.33-2,4.67-4.01,7.01-6,1.42-1.21,3.15-1.31,4.48-.25.9.71,1.21,1.7,1.21,2.78.02,3.01,0,6.01,0,9.02,0,.19,0,.37,0,.64Z" fill="#f26a4d"/>
  </g>
  <g>
    <path d="m49.39,107.83H13.59c.41-3.54,1.66-6.86,3.74-9.98s5.98-6.79,11.7-11.03c3.5-2.6,5.73-4.57,6.71-5.92s1.46-2.63,1.46-3.84c0-1.31-.48-2.43-1.45-3.35s-2.18-1.39-3.65-1.39-2.77.48-3.74,1.44-1.62,2.65-1.95,5.07l-11.95-.97c.47-3.36,1.33-5.98,2.58-7.87s3.01-3.33,5.29-4.34,5.42-1.51,9.45-1.51,7.47.48,9.8,1.44,4.17,2.43,5.51,4.41,2.01,4.2,2.01,6.67c0,2.62-.77,5.12-2.3,7.5s-4.32,5-8.36,7.85c-2.4,1.66-4.01,2.82-4.82,3.49s-1.76,1.53-2.86,2.61h18.63v9.73Z" fill="#f26a4d"/>
    <path d="m56.6,64.89h19.72c3.89,0,7.03.53,9.42,1.58s4.37,2.57,5.93,4.54,2.7,4.27,3.4,6.88,1.05,5.39,1.05,8.32c0,4.59-.52,8.15-1.57,10.68s-2.5,4.65-4.35,6.36-3.85,2.85-5.98,3.41c-2.91.78-5.55,1.17-7.91,1.17h-19.72v-42.95Zm13.27,9.73v23.47h3.25c2.77,0,4.75-.31,5.92-.92s2.09-1.69,2.75-3.22,1-4.02,1-7.46c0-4.55-.74-7.67-2.23-9.35s-3.95-2.52-7.38-2.52h-3.31Z" fill="#f26a4d"/>
  </g>
  <g>
    <path d="m226.44,76.94l-11.28-2.02c.94-3.59,2.74-6.35,5.41-8.26s6.44-2.87,11.32-2.87c5.61,0,9.66,1.04,12.16,3.13s3.75,4.72,3.75,7.88c0,1.86-.51,3.54-1.52,5.04s-2.55,2.82-4.6,3.96c1.66.41,2.93.89,3.81,1.44,1.43.88,2.53,2.04,3.33,3.47s1.19,3.15,1.19,5.14c0,2.5-.65,4.9-1.96,7.19s-3.19,4.06-5.65,5.3-5.69,1.86-9.7,1.86-6.99-.46-9.24-1.38-4.11-2.26-5.57-4.03-2.57-3.99-3.35-6.67l11.92-1.58c.47,2.4,1.2,4.07,2.18,5s2.24,1.39,3.76,1.39c1.6,0,2.93-.59,4-1.76s1.6-2.73,1.6-4.69-.51-3.54-1.54-4.63-2.42-1.64-4.17-1.64c-.94,0-2.23.23-3.87.7l.62-8.53c.66.1,1.18.15,1.55.15,1.56,0,2.87-.5,3.91-1.49s1.57-2.18,1.57-3.54-.39-2.35-1.17-3.13-1.86-1.17-3.22-1.17-2.55.42-3.43,1.27-1.47,2.34-1.79,4.47Z" fill="#f26a4d"/>
    <path d="m257,64.52h19.72c3.89,0,7.03.53,9.42,1.58s4.37,2.57,5.93,4.54,2.7,4.27,3.4,6.88,1.05,5.39,1.05,8.32c0,4.59-.52,8.15-1.57,10.68s-2.5,4.65-4.35,6.36-3.85,2.85-5.98,3.41c-2.91.78-5.55,1.17-7.91,1.17h-19.72v-42.95Zm13.27,9.73v23.47h3.25c2.77,0,4.75-.31,5.92-.92s2.09-1.69,2.75-3.22,1-4.02,1-7.46c0-4.55-.74-7.67-2.23-9.35s-3.95-2.52-7.38-2.52h-3.31Z" fill="#f26a4d"/>
  </g>
  <g id="YHRZrd.tif">
    <g>
      <path d="m146.05,186.29c0-3.13,0-6.14,0-9.15,0-2.09-.01-4.18.01-6.28,0-.52-.15-.85-.56-1.19-5.95-4.9-9.42-11.17-9.99-18.88-.69-9.44,2.9-17.11,10.17-23.02,8.22-6.68,20.14-7.56,29.38-2.37,8.01,4.5,12.55,11.45,13.58,20.41,1.11,9.68-2.48,17.69-9.95,23.95-.24.2-.48.57-.48.87-.03,5.11-.02,10.21-.02,15.32,0,.08.03.16.06.34.31,0,.64,0,.96,0,7.64,0,15.29,0,22.93,0,3.48,0,6.73.88,9.65,2.8,2.93,1.93,4.82,4.68,6.05,7.9,3.75,9.86,7.48,19.73,11.22,29.6.75,1.98,1.53,3.94,2.22,5.95.27.8.44,1.68.45,2.53.04,6.78.04,13.56.01,20.34-.02,7.52-4.42,13.63-11.49,15.8-1.58.49-3.29.74-4.93.75-35.43.04-70.86.04-106.29.03-7.94,0-14.4-5.11-16.1-12.73-.29-1.3-.42-2.65-.43-3.98-.04-6.47-.05-12.94,0-19.42.01-1.2.22-2.46.63-3.58,4.37-11.74,8.76-23.47,13.22-35.18,2.65-6.94,8.38-10.79,15.82-10.8,7.59-.01,15.18,0,22.77,0,.33,0,.66,0,1.09,0Zm0,10.75c-.23-.02-.34-.04-.44-.04-8.2,0-16.4-.01-24.6.02-.65,0-1.33.2-1.93.45-1.71.7-2.53,2.17-3.14,3.81-4.07,10.87-8.16,21.73-12.21,32.61-.29.76-.49,1.61-.5,2.42-.04,6.5-.02,13-.02,19.5,0,3.11,2.39,5.48,5.52,5.47.59,0,1.17,0,1.76,0,35.01,0,70.02,0,105.02,0,3.35,0,5.55-2.19,5.55-5.55,0-6.25-.02-12.5.02-18.74,0-1.17-.19-2.25-.6-3.34-2.79-7.39-5.56-14.8-8.34-22.2-1.39-3.7-2.74-7.42-4.22-11.08-.91-2.25-2.66-3.4-5.16-3.39-7.87.03-15.73,0-23.6,0h-.95v1.01c0,4.83.02,9.65,0,14.48-.02,3.29-1.34,5.96-4.05,7.84-1,.69-2.09,1.32-3.22,1.75-6.25,2.41-12.51,2.3-18.62-.4-4.08-1.8-6.28-5.01-6.25-9.61.03-4.69,0-9.37,0-14.06,0-.3,0-.6,0-.97Zm0-48.1c-.26,7.8,6.69,16.28,16.73,15.96,7.93-.25,15.54-7.14,15.46-16.25-.08-8.88-7.55-16.12-16.41-15.97-8.81.15-16.06,7.78-15.78,16.25Zm10.78,26.03c-.03.17-.06.25-.06.34,0,12.05,0,24.1-.02,36.14,0,.6.31.76.76.9,2.98.94,5.96.97,8.97.11.79-.22,1.02-.59,1.01-1.39-.03-11.74-.02-23.48-.02-35.22,0-.27,0-.55,0-.91-3.58.8-7.09.78-10.65.03Z" fill="#fff"/>
      <path d="m146.05,197.04c0,.37,0,.67,0,.97,0,4.69.02,9.37,0,14.06-.03,4.59,2.17,7.81,6.25,9.61,6.11,2.7,12.37,2.81,18.62.4,1.13-.44,2.22-1.06,3.22-1.75,2.71-1.88,4.03-4.55,4.05-7.84.02-4.83,0-9.65,0-14.48v-1.01h.95c7.87,0,15.73.02,23.6,0,2.5,0,4.25,1.14,5.16,3.39,1.48,3.66,2.83,7.38,4.22,11.08,2.78,7.4,5.54,14.8,8.34,22.2.41,1.09.61,2.17.6,3.34-.03,6.25-.01,12.5-.02,18.74,0,3.36-2.19,5.55-5.55,5.55-35.01,0-70.02,0-105.02,0-.59,0-1.17,0-1.76,0-3.12,0-5.52-2.36-5.52-5.47,0-6.5-.02-13,.02-19.5,0-.81.21-1.65.5-2.42,4.06-10.88,8.14-21.74,12.21-32.61.61-1.64,1.43-3.11,3.14-3.81.61-.25,1.29-.45,1.93-.45,8.2-.03,16.4-.02,24.6-.02.11,0,.22.02.44.04Zm16.08,48.17c14.03,0,28.06,0,42.08,0,.64,0,1.29-.05,1.9-.19,3.25-.73,4.97-4.02,3.75-7.11-.87-2.22-2.73-3.4-5.42-3.4-28.17,0-56.34,0-84.5,0-.58,0-1.17.06-1.74.18-3.16.65-4.96,3.74-3.97,6.81.75,2.34,2.79,3.71,5.55,3.71,14.11,0,28.22,0,42.34,0Z" fill="#f26a4d"/>
      <path d="m142.48,148.97c-.35-10.35,8.51-19.67,19.27-19.85,10.82-.18,19.94,8.66,20.04,19.5.1,11.12-9.19,19.54-18.88,19.84-12.26.39-20.75-9.97-20.43-19.49Z" fill="#f26a4d"/>
      <path d="m152.53,170.91c7.19,1.68,12.13,1.68,19.26-.04,0,.44,0,.78,0,1.12,0,14.48-.01,26.7.03,41.17,0,.99-.41,3.7-1.83,3.98-5.45,1.06-10.83,1.02-16.22-.14-.81-.17-1.37-3.1-1.37-3.84.04-14.86.02-26.98.03-41.84,0-.1.05-.2.1-.41Z" fill="#f26a4d"/>
      <path d="m162.13,245.21c-14.11,0-28.22,0-42.34,0-2.76,0-4.8-1.37-5.55-3.71-.99-3.07.81-6.17,3.97-6.81.57-.12,1.16-.18,1.74-.18,28.17,0,56.34,0,84.5,0,2.68,0,4.54,1.17,5.42,3.4,1.21,3.09-.51,6.38-3.75,7.11-.62.14-1.27.19-1.9.19-14.03.01-28.06,0-42.08,0Z" fill="#fff"/>
    </g>
  </g>
</svg>