<?xml version="1.0" encoding="UTF-8"?>
<svg id="Layer_1" data-name="Layer 1" xmlns="http://www.w3.org/2000/svg" viewBox="0 0 300 300">
  <rect x="8.31" y="19.63" width="228.82" height="197.43" rx="15.34" ry="15.34" fill="#f1c269"/>
  <rect x="59.58" y="88.62" width="228.82" height="197.43" rx="15.34" ry="15.34" fill="#f1c269"/>
  <rect x="59.58" y="89.56" width="177.55" height="127.5" fill="none" stroke="#fff" stroke-dasharray="0 12" stroke-linecap="round" stroke-linejoin="round" stroke-width="5"/>
  <g>
    <path d="m73.59,97.5H26.08c.54-4.69,2.2-9.11,4.96-13.24,2.76-4.13,7.94-9.01,15.53-14.64,4.64-3.45,7.61-6.07,8.9-7.85,1.3-1.79,1.94-3.49,1.94-5.09,0-1.74-.64-3.22-1.92-4.45-1.28-1.23-2.9-1.85-4.84-1.85s-3.67.64-4.96,1.91c-1.28,1.27-2.15,3.51-2.59,6.73l-15.86-1.28c.62-4.46,1.76-7.94,3.42-10.44,1.66-2.5,4-4.42,7.02-5.75,3.02-1.33,7.2-2,12.54-2s9.91.64,13.01,1.91c3.1,1.27,5.53,3.22,7.31,5.85s2.66,5.58,2.66,8.85c0,3.47-1.02,6.79-3.05,9.95s-5.74,6.64-11.1,10.42c-3.19,2.2-5.32,3.75-6.4,4.63s-2.34,2.03-3.79,3.46h24.73v12.91Z" fill="#fff" stroke="#f0c168" stroke-miterlimit="10" stroke-width="3"/>
    <path d="m83.16,40.5h26.17c5.16,0,9.33.7,12.5,2.1,3.18,1.4,5.8,3.41,7.87,6.03,2.07,2.62,3.58,5.66,4.51,9.14.93,3.47,1.4,7.15,1.4,11.04,0,6.09-.69,10.82-2.08,14.17-1.39,3.36-3.31,6.17-5.77,8.44-2.46,2.27-5.11,3.78-7.93,4.53-3.86,1.04-7.36,1.56-10.5,1.56h-26.17v-57Zm17.61,12.91v31.15h4.32c3.68,0,6.3-.41,7.85-1.22s2.77-2.24,3.65-4.28c.88-2.03,1.32-5.33,1.32-9.9,0-6.04-.99-10.17-2.96-12.4s-5.24-3.34-9.8-3.34h-4.39Z" fill="#fff" stroke="#f0c168" stroke-miterlimit="10" stroke-width="3"/>
  </g>
  <g>
    <path d="m174.32,221.86l-14.97-2.68c1.24-4.77,3.64-8.42,7.17-10.96,3.54-2.54,8.55-3.81,15.03-3.81,7.44,0,12.82,1.39,16.14,4.16s4.98,6.26,4.98,10.46c0,2.46-.67,4.69-2.02,6.69-1.35,2-3.38,3.75-6.1,5.25,2.2.54,3.89,1.18,5.05,1.91,1.89,1.17,3.36,2.7,4.41,4.61s1.57,4.18,1.57,6.82c0,3.32-.87,6.5-2.61,9.55s-4.24,5.39-7.5,7.04-7.56,2.47-12.87,2.47-9.27-.61-12.27-1.83c-2.99-1.22-5.46-3-7.39-5.35-1.93-2.35-3.42-5.29-4.45-8.85l15.83-2.1c.62,3.19,1.59,5.4,2.9,6.63,1.31,1.23,2.97,1.85,5,1.85,2.13,0,3.89-.78,5.31-2.33s2.12-3.63,2.12-6.22-.68-4.69-2.04-6.14c-1.36-1.45-3.21-2.18-5.54-2.18-1.24,0-2.96.31-5.13.93l.82-11.31c.88.13,1.57.19,2.06.19,2.07,0,3.8-.66,5.19-1.98s2.08-2.89,2.08-4.7-.52-3.12-1.56-4.16-2.46-1.56-4.28-1.56-3.38.56-4.55,1.69c-1.17,1.13-1.96,3.1-2.37,5.93Z" fill="#fff" stroke="#f0c168" stroke-miterlimit="10" stroke-width="3"/>
    <path d="m214.88,205.37h26.17c5.16,0,9.33.7,12.5,2.1,3.18,1.4,5.8,3.41,7.87,6.03,2.07,2.62,3.58,5.66,4.51,9.14.93,3.47,1.4,7.15,1.4,11.04,0,6.09-.69,10.82-2.08,14.17s-3.31,6.17-5.77,8.44-5.11,3.78-7.93,4.53c-3.86,1.04-7.36,1.56-10.5,1.56h-26.17v-57Zm17.61,12.91v31.15h4.32c3.68,0,6.3-.41,7.85-1.22s2.77-2.24,3.65-4.28c.88-2.03,1.32-5.33,1.32-9.9,0-6.04-.99-10.17-2.96-12.4s-5.24-3.34-9.8-3.34h-4.39Z" fill="#fff" stroke="#f0c168" stroke-miterlimit="10" stroke-width="3"/>
  </g>
  <g id="kkl3RF.tif">
    <g>
      <path d="m166.22,163.78c.31.33.62.65.93.98,7.64,8.06,15.28,16.13,22.93,24.18,1.14,1.2,1.83,2.54,1.53,4.2-.33,1.84-1.4,3.08-3.22,3.61-1.72.5-3.22-.05-4.47-1.26-1.05-1.01-2.02-2.12-3.03-3.18-6.83-7.21-13.66-14.41-20.49-21.62-.17-.18-.33-.35-.62-.65-.01.37-.02.58-.02.79-.13,5.43-.27,10.87-.4,16.3-.03,1.24-.3,2.38-1.14,3.33-1.12,1.27-3.06,1.77-4.76,1.18-1.83-.64-2.95-2.01-3.02-3.86-.05-1.13.02-2.26.04-3.4.11-5.49.24-10.98.33-16.48.06-3.7,1.31-6.92,3.88-9.51,2.53-2.55,5.7-3.9,9.33-3.84,5.45.1,10.9.35,16.35.54,1.28.04,2.57.06,3.85.16,3.54.28,5.49,4.02,3.63,6.95-.7,1.1-1.72,1.77-3.02,1.94-.54.07-1.09.08-1.64.06-5.43-.18-10.87-.38-16.3-.57-.2,0-.4-.06-.61-.1-.02.08-.05.16-.07.24Z" fill="#fff"/>
      <path d="m133.8,142.59c-.15-.16-.3-.32-.45-.48-7.66-8.07-15.31-16.14-22.96-24.22-.54-.57-1.07-1.21-1.4-1.91-.94-1.97-.26-4.31,1.49-5.49,1.86-1.26,4.2-1.03,5.8.58.7.7,1.36,1.44,2.04,2.15,7.32,7.71,14.63,15.42,21.95,23.14.09.09.18.17.38.35.02-.49.03-.85.04-1.22.1-5.32.2-10.64.3-15.97.02-1.31.24-2.56,1.17-3.55,1.19-1.26,2.66-1.73,4.36-1.3,1.74.44,2.89,1.56,3.35,3.3.14.52.12,1.09.11,1.63-.08,6.02-.16,12.04-.25,18.06-.04,2.84-.57,5.55-2.14,7.95-2.82,4.31-6.89,6.3-12.03,6.17-5.66-.15-11.32-.37-16.98-.56-.79-.03-1.59-.03-2.38-.08-2.8-.18-4.35-2.01-4.37-4.5-.02-2.58,1.85-4.45,4.47-4.39,5.66.12,11.32.32,16.98.49.15,0,.29,0,.44,0,.03-.05.05-.09.08-.14Z" fill="#fff"/>
    </g>
  </g>
</svg>