<?xml version="1.0" encoding="UTF-8"?>
<svg id="Layer_1" data-name="Layer 1" xmlns="http://www.w3.org/2000/svg" viewBox="0 0 300 300">
  <line x1="15" y1="30.46" x2="29.81" y2="30.46" fill="none" stroke="#fff" stroke-linecap="round" stroke-miterlimit="10" stroke-width="5"/>
  <g>
    <line x1="203.75" y1="97.18" x2="269.03" y2="41.43" fill="none" stroke="#f26a4d" stroke-linecap="round" stroke-miterlimit="10" stroke-width="5"/>
    <line x1="175.5" y1="128.73" x2="272.93" y2="128.63" fill="none" stroke="#f26a4d" stroke-linecap="round" stroke-miterlimit="10" stroke-width="5"/>
    <line x1="29.74" y1="204.21" x2="175.5" y2="128.73" fill="none" stroke="#f26a4d" stroke-linecap="round" stroke-miterlimit="10" stroke-width="5"/>
    <circle cx="175.5" cy="128.73" r="35.71" fill="#fff" stroke="#f26a4d" stroke-linecap="round" stroke-miterlimit="10" stroke-width="10"/>
    <circle cx="249.93" cy="52.83" r="25.9" fill="#fff" stroke="#f26a4d" stroke-linecap="round" stroke-miterlimit="10" stroke-width="10"/>
    <circle cx="272.93" cy="128.63" r="18.15" fill="#fff" stroke="#f26a4d" stroke-linecap="round" stroke-miterlimit="10" stroke-width="10"/>
    <circle cx="53.85" cy="187.55" r="43.59" fill="#fff" stroke="#f26a4d" stroke-linecap="round" stroke-miterlimit="10" stroke-width="10"/>
    <circle cx="53.85" cy="187.64" r="19.48" fill="#f26a4d"/>
    <rect x="8.54" y="15.63" width="129.59" height="63.1" rx="10.63" ry="10.63" fill="#f26a4d" stroke="#fff" stroke-linecap="round" stroke-miterlimit="10" stroke-width="5"/>
    <line x1="66.49" y1="36.22" x2="115.59" y2="36.22" fill="none" stroke="#fff" stroke-linecap="round" stroke-miterlimit="10" stroke-width="5"/>
    <line x1="28.97" y1="36.22" x2="51.13" y2="36.22" fill="none" stroke="#fff" stroke-linecap="round" stroke-miterlimit="10" stroke-width="5"/>
    <line x1="96.92" y1="58.99" x2="116.43" y2="58.94" fill="none" stroke="#fff" stroke-linecap="round" stroke-miterlimit="10" stroke-width="5"/>
    <line x1="27.53" y1="59.25" x2="79.53" y2="59.23" fill="none" stroke="#fff" stroke-linecap="round" stroke-miterlimit="10" stroke-width="5"/>
    <line x1="125.59" y1="69.94" x2="151.96" y2="93.53" fill="none" stroke="#f26a4d" stroke-linecap="round" stroke-miterlimit="10" stroke-width="5"/>
  </g>
  <g id="qtFcCR.tif">
    <path d="m190.96,166.2c8.56-3.51,14.85-1.03,19.06,7.1,4.63-2.74,9.37-2.97,14.01-.11,4.66,2.88,6.39,7.35,6.22,12.74.22-.07.38-.08.51-.16,5.03-2.96,12-1.45,15.78,2.91,1.93,2.22,3.09,4.77,3.23,7.73.08,1.76.14,3.52.15,5.27.01,12.82.02,25.64.01,38.46,0,9.83-2.43,18.97-7.87,27.22-5.17,7.82-12.03,13.68-20.61,17.49-5.46,2.42-11.16,3.77-17.14,4.01-13.62.54-25.36-4.04-35.45-13.04-2.92-2.6-5.25-5.72-7.46-8.94-9.07-13.25-18.14-26.5-27.22-39.75-1.97-2.88-3.94-5.76-5.91-8.63-3.08-4.5-3.59-9.24-1.07-14.11,4.08-7.88,15-9.39,20.98-2.84,2.09,2.29,3.76,4.96,5.57,7.49,2.64,3.71,5.24,7.45,7.86,11.18.79,1.12,1.16,1.28,2.15.94.74-.25.97-.72.97-1.96,0-16.95,0-33.91-.01-50.86,0-9.36,0-18.71,0-28.07,0-2.91.45-5.72,1.9-8.31,2.71-4.83,8.18-7.39,13.77-6.4,5.23.93,9.61,5.48,10.37,10.83.15,1.08.22,2.18.22,3.26,0,8.66-.03,17.33-.04,25.99,0,.18.02.36.03.55Z" fill="#f26a4d" stroke="#fff" stroke-linecap="round" stroke-miterlimit="10" stroke-width="5"/>
  </g>
  <line x1="190.88" y1="162.06" x2="190.88" y2="194.18" fill="none" stroke="#fff" stroke-linecap="round" stroke-miterlimit="10" stroke-width="5"/>
  <line x1="210.21" y1="173.99" x2="210.21" y2="194.18" fill="none" stroke="#fff" stroke-linecap="round" stroke-miterlimit="10" stroke-width="5"/>
  <line x1="229.54" y1="178.12" x2="229.54" y2="194.18" fill="none" stroke="#fff" stroke-linecap="round" stroke-miterlimit="10" stroke-width="5"/>
</svg>