<?xml version="1.0" encoding="UTF-8"?>
<svg id="Layer_1" data-name="Layer 1" xmlns="http://www.w3.org/2000/svg" viewBox="0 0 300 300">
  <g id="lE98Cr.tif">
    <g>
      <path d="m148.23,8.69c-.61.05-1.22.11-1.83.16-.33.03-.66.06-1,.09,17.94,1.15,33.62,7.73,47.1,19.53,10.77,9.43,18.31,21.07,22.78,34.64,8.62,26.14,1.61,50.77-7.33,64.89-6.13-3.4-12.76-4.69-19.9-4.43.57-.85,1-1.49,1.43-2.13,5.02-7.48,8.47-15.6,9.81-24.54.83-5.55.9-11.13.25-16.71-.88-7.46-3.18-14.5-6.8-21.16-2.93-5.38-6.71-10.27-11.14-14.5-6.64-6.33-14.17-10.93-22.73-13.71-4.69-1.52-9.5-2.41-14.43-2.71-4.02-.25-8.04-.2-12.03.32-6.02.78-11.79,2.49-17.28,5.08-11.35,5.37-20.38,13.73-26.98,25.21-2.11,3.68-3.78,7.6-4.93,11.69-2.47,8.81-3.12,17.7-1.66,26.62,2.35,14.39,9.1,26.29,20.03,35.86.57.5,1.21.92,1.75,1.44.26.25.52.67.52,1.02.02,6.85,0,13.71,0,20.56,0,.48-.12.78-.65.68-.55-.1-1.15-.13-1.62-.4-9.11-5.19-16.9-11.93-23.36-20.2-7.46-9.53-12.36-20.24-14.91-32.06-1.2-5.56-1.55-11.17-1.57-16.85-.01-5.2.41-10.34,1.44-15.41,2.31-11.44,7.04-21.8,14.01-31.14,8.73-11.68,19.86-20.29,33.3-25.9,5.65-2.36,11.53-3.98,17.57-4.93,2.53-.4,5.1-.54,7.31-.76-.43-.06-1.24-.17-2.05-.27,4.96,0,9.92,0,14.88,0Z" fill="#35a591"/>
      <path d="m119.67,178.22c0-.75,0-1.32,0-1.89,0-12.79-.02-25.57-.02-38.36,0-13.94,0-27.87,0-41.81,0-10.2,6.57-18.44,16.51-20.6,4.89-1.06,9.57-.27,13.89,2.21,6.59,3.79,9.99,9.59,10.45,17.15.09,1.4.06,2.8.06,4.21,0,10.42,0,20.84,0,31.25,0,.34,0,.68,0,1.1.41-.06.81-.1,1.2-.17,3.58-.63,7.29-.5,10.67.85,4.28,1.71,7.67,4.5,10.06,8.31.31.5.63.32.99.22,1.28-.35,2.54-.8,3.84-1.04,3.68-.67,7.28-.21,10.74,1.19,6.9,2.8,10.92,8.03,12.56,15.21.05.22.05.45.09.77.46-.07.88-.12,1.3-.21,9.32-1.85,18.94,3.23,22.75,12.55,1.06,2.59,1.5,5.3,1.51,8.08.01,16.17-.02,32.34.03,48.5,0,1.59-.32,5.39-.71,6.93-1.39,5.45-3.55,11.15-7.07,17.39-3.27,5.8-8.35,11.13-13.82,16.32-.14.26-.17.61-.17.92,0,7.7,0,15.41,0,23.11,0,.25,0,.5,0,.84-.27.01-.51.03-.76.03-27.47,0-54.94,0-82.42.02-.62,0-.76-.18-.76-.78.02-7.98,0-15.96.02-23.94,0-.45-.17-.88-.47-1.21-5.81-6.21-11.73-12.32-17.36-18.69-6.81-7.7-12.26-16.3-15.69-26.05-2.89-8.22-5.53-16.54-8.29-24.8-3.24-9.7,3.01-21.43,14.61-23.31,5.43-.88,10.27.63,14.49,4.13.56.47,1.11.96,1.79,1.56Z" fill="#35a591"/>
      <path d="m176.33,111.36c0-1.39,0-2.79,0-4.18-.02-4.46-.04-8.92-.08-13.38-.04-4.66-1.31-9.02-3.22-13.22-4.04-8.91-10.78-15.24-20.17-19-3.42-1.37-7.08-2.1-10.76-2.2-13.31-.39-23.71,4.73-31.24,14.83-4.64,6.23-7,13.32-6.97,21.15.02,5.01,0,10.02-.02,15.04,0,.04-.03.08-.09.24-3.72-5.96-5.93-12.37-6.51-19.27-.98-11.61,2.27-22.03,9.61-31.05,14.64-17.98,41.33-22.06,60.77-6.26,17.64,14.34,20.96,39.01,8.67,57.3Z" fill="#35a591"/>
    </g>
    <rect x="157.82" y="76.41" width="5.04" height="97" rx="2.39" ry="2.39" fill="#fff"/>
    <rect x="181.15" y="133.77" width="5.04" height="39.65" rx="2.39" ry="2.39" fill="#fff"/>
    <rect x="207.36" y="133.77" width="5.04" height="39.65" rx="2.39" ry="2.39" fill="#fff"/>
    <rect x="117.32" y="80.06" width="5.46" height="129.18" rx="2.58" ry="2.58" fill="#fff"/>
  </g>
</svg>