<?xml version="1.0" encoding="UTF-8"?>
<svg id="Layer_1" data-name="Layer 1" xmlns="http://www.w3.org/2000/svg" viewBox="0 0 300 300">
  <rect x="8.54" y="33.49" width="282.92" height="244.12" rx="15.34" ry="15.34" fill="#f1c269"/>
  <g>
    <path d="m138.14,131.23h-47.4c.54-4.68,2.19-9.08,4.95-13.21,2.75-4.12,7.92-8.99,15.5-14.6,4.63-3.44,7.59-6.05,8.88-7.83s1.94-3.48,1.94-5.08c0-1.73-.64-3.21-1.92-4.44-1.28-1.23-2.89-1.84-4.83-1.84s-3.67.63-4.95,1.9c-1.28,1.27-2.14,3.5-2.58,6.71l-15.82-1.28c.62-4.45,1.76-7.92,3.41-10.41s3.99-4.41,7-5.74c3.01-1.33,7.18-2,12.51-2s9.88.63,12.97,1.9c3.09,1.27,5.52,3.21,7.29,5.84,1.77,2.62,2.66,5.57,2.66,8.82,0,3.46-1.01,6.77-3.04,9.93s-5.72,6.62-11.07,10.39c-3.18,2.2-5.31,3.74-6.38,4.62s-2.33,2.03-3.78,3.45h24.67v12.88Z" fill="#fff"/>
    <path d="m147.68,74.37h26.1c5.15,0,9.3.7,12.47,2.09,3.17,1.4,5.79,3.4,7.85,6.01s3.57,5.65,4.5,9.11,1.4,7.14,1.4,11.02c0,6.08-.69,10.79-2.08,14.14s-3.3,6.15-5.76,8.42c-2.46,2.26-5.09,3.77-7.91,4.52-3.85,1.03-7.34,1.55-10.47,1.55h-26.1v-56.86Zm17.57,12.88v31.07h4.31c3.67,0,6.28-.41,7.83-1.22s2.77-2.24,3.65-4.27,1.32-5.32,1.32-9.87c0-6.02-.98-10.15-2.95-12.37-1.97-2.22-5.22-3.34-9.77-3.34h-4.38Z" fill="#fff"/>
  </g>
  <g>
    <path d="m109.19,191.45l-14.93-2.68c1.24-4.76,3.63-8.4,7.16-10.94s8.53-3.8,14.99-3.8c7.42,0,12.79,1.38,16.1,4.15s4.96,6.24,4.96,10.43c0,2.46-.67,4.68-2.02,6.67-1.34,1.99-3.37,3.74-6.09,5.24,2.2.54,3.88,1.18,5.04,1.9,1.89,1.16,3.36,2.7,4.4,4.6s1.57,4.17,1.57,6.81c0,3.31-.87,6.48-2.6,9.52-1.73,3.04-4.23,5.38-7.49,7.02-3.26,1.64-7.54,2.46-12.84,2.46s-9.25-.61-12.24-1.82c-2.99-1.22-5.44-2.99-7.37-5.33s-3.41-5.28-4.44-8.82l15.79-2.09c.62,3.18,1.58,5.38,2.89,6.61s2.97,1.84,4.98,1.84c2.12,0,3.89-.78,5.29-2.33s2.11-3.62,2.11-6.21-.68-4.68-2.04-6.13-3.2-2.17-5.53-2.17c-1.24,0-2.95.31-5.12.93l.81-11.29c.88.13,1.56.19,2.06.19,2.07,0,3.79-.66,5.18-1.98,1.38-1.32,2.08-2.88,2.08-4.69s-.52-3.12-1.55-4.15-2.46-1.55-4.27-1.55-3.37.56-4.54,1.69-1.95,3.1-2.37,5.91Z" fill="#fff"/>
    <path d="m149.64,175h26.1c5.15,0,9.3.7,12.47,2.09s5.79,3.4,7.85,6.01,3.57,5.65,4.5,9.11,1.4,7.14,1.4,11.02c0,6.08-.69,10.79-2.08,14.14s-3.3,6.15-5.76,8.42c-2.46,2.26-5.09,3.77-7.91,4.52-3.85,1.03-7.34,1.55-10.47,1.55h-26.1v-56.86Zm17.57,12.88v31.07h4.31c3.67,0,6.28-.41,7.83-1.22s2.77-2.24,3.65-4.27c.88-2.03,1.32-5.32,1.32-9.87,0-6.02-.98-10.15-2.95-12.37s-5.22-3.34-9.77-3.34h-4.38Z" fill="#fff"/>
  </g>
</svg>