<?xml version="1.0" encoding="UTF-8"?>
<svg id="Layer_1" data-name="Layer 1" xmlns="http://www.w3.org/2000/svg" viewBox="0 0 300 300">
  <g id="fv9tu1.tif">
    <g>
      <path d="m18.97,97.18c0-22.06,0-44.12,0-66.18,0-7.73,6.21-13.97,13.92-13.97,31.6,0,63.19,0,94.79,0,7.59,0,13.97,6.4,13.97,14.01,0,44.02,0,88.04,0,132.06,0,8.34-6.04,14.35-14.42,14.35-30.76,0-61.52-.04-92.28.03-3.5,0-6.74-.46-9.65-2.48-4.05-2.82-6.34-6.59-6.34-11.63,0-22.06,0-44.12,0-66.18Z" fill="#f1c269"/>
      <path d="m281.05,202.87c0,21.91,0,43.82,0,65.73,0,8.35-6.03,14.36-14.41,14.36-31.4,0-62.8,0-94.2,0-7.66,0-14.08-6.41-14.08-14.07,0-44.02,0-88.04,0-132.06,0-8.15,6.1-14.28,14.2-14.28,31.45,0,62.9,0,94.35,0,7.79,0,14.13,6.34,14.13,14.14,0,22.06,0,44.12,0,66.18Z" fill="#f1c269"/>
      <path d="m219.7,101.97c-15.77,0-31.54,0-47.32,0-7.58,0-14.03-6.43-14.03-13.97,0-19.01,0-38.02,0-57.03,0-7.71,6.23-13.92,13.97-13.92,31.59,0,63.19,0,94.78,0,7.5,0,13.93,6.41,13.93,13.9.01,19.06.01,38.12,0,57.18,0,7.6-6.11,13.78-13.73,13.84-7.96.05-15.92,0-23.88,0-7.91,0-15.82,0-23.73,0h0Z" fill="#f1c269"/>
      <path d="m80.28,282.96c-15.72,0-31.45,0-47.17,0-7.74,0-14.14-6.4-14.14-14.16,0-18.91,0-37.83,0-56.74,0-7.84,6.17-14.03,14.01-14.03,31.55,0,63.09,0,94.64,0,7.73,0,14.04,6.33,14.04,14.07,0,18.91,0,37.83,0,56.74,0,8.04-6.09,14.1-14.2,14.12-7.86.02-15.72,0-23.59,0-7.86,0-15.72,0-23.59,0h0Z" fill="#f1c269"/>
    </g>
  </g>
</svg>