<?xml version="1.0" encoding="UTF-8"?>
<svg id="Layer_1" data-name="Layer 1" xmlns="http://www.w3.org/2000/svg" viewBox="0 0 300 300">
  <g id="zqUJc3.tif">
    <g>
      <path d="m249.16,47.93c-.23-4.58-.51-9.16-.69-13.74-.08-1.92-.21-3.9.13-5.78.78-4.29,4.36-7.04,8.43-6.79,4.31.27,7.69,3.62,7.91,8.12.61,12.36,1.19,24.72,1.67,37.09.23,5.86-3.22,9.23-9.05,9.47-10.62.45-21.22,1.07-31.84,1.53-2.51.11-5.11.25-7.52-.28-3.79-.83-6.46-4.7-6.2-8.14.32-4.16,3.35-7.46,7.59-7.8,5.5-.44,11.02-.59,16.54-.86.45-.02.9,0,1.52,0-.15-.36-.18-.59-.32-.72-9.6-9.15-19.97-17.24-31.9-23.19-12.61-6.29-25.86-10.43-39.85-12.25-10.55-1.37-21.12-1.42-31.66-.17-22.06,2.62-42.03,10.6-59.82,23.95-11.47,8.61-21.23,18.87-29.13,30.86-8.24,12.51-14.28,25.98-17.63,40.62-2.92,12.74-3.76,25.62-2.77,38.65.55,7.27,1.86,14.39,3.54,21.47,1.12,4.72-1.37,8.86-5.96,10.12-4.09,1.12-8.54-1.32-9.68-5.82-1.41-5.6-2.49-11.3-3.44-17-1.26-7.55-1.67-15.17-1.43-22.83.34-10.56,1.95-20.95,4.53-31.19,5.64-22.48,16.65-42.08,31.89-59.43,8.88-10.11,19.23-18.44,30.57-25.59,16.33-10.29,34.16-16.55,53.17-19.55,12.7-2.01,25.44-2.32,38.23-.66,14.97,1.94,29.29,6.04,43.01,12.33,13.94,6.39,26.25,15.13,37.45,25.53.77.71,1.58,1.39,2.38,2.07.05.04.17,0,.33-.02Z" fill="#f26a4d" stroke="#f16a4d" stroke-linecap="round" stroke-linejoin="round" stroke-width="11"/>
      <path d="m48.8,248.48c.22,4.55.44,8.77.64,12.99.08,1.7.13,3.4.14,5.1.01,4.4-3.45,8.21-7.66,8.48-4.34.27-8.15-2.88-8.62-7.39-.37-3.61-.49-7.25-.67-10.88-.44-9.05-.87-18.11-1.24-27.16-.16-3.92,1.55-6.85,5.19-8.47.94-.42,2.03-.66,3.06-.71,10.2-.5,20.41-.95,30.61-1.41,2.53-.11,5.06-.33,7.58-.28,3.8.08,7.04,2.84,7.92,6.53,1.09,4.57-2.49,9.38-7.51,9.77-5.45.42-10.93.59-16.4.86-.48.02-.96,0-1.87,0,.55.62.77.93,1.05,1.18,7.26,6.66,14.76,13.01,23.25,18.11,12.69,7.62,26.26,12.92,40.8,15.73,10.54,2.03,21.17,2.5,31.87,1.92,19.35-1.05,37.44-6.44,54.19-16.12,22.55-13.03,39.47-31.38,50.74-54.86,6.12-12.74,9.94-26.19,11.31-40.27,1.44-14.76.66-29.4-3.1-43.81-.83-3.19-.84-6.18,1.63-8.75,4.4-4.59,11.73-3.1,13.68,2.96,1.11,3.44,1.81,7.03,2.48,10.59,1.88,9.97,2.91,20.03,2.5,30.19-.49,12.13-2.29,24.09-5.96,35.67-2.14,6.72-4.58,13.4-7.54,19.8-9.33,20.21-22.75,37.35-40.31,51.05-18.85,14.7-40.06,24.27-63.73,28.28-13.1,2.22-26.24,2.88-39.44,1.27-16.04-1.96-31.42-6.26-45.97-13.36-10.09-4.92-19.49-10.9-28.12-18.08-3.04-2.53-5.96-5.19-8.95-7.78-.41-.35-.86-.65-1.55-1.16Z" fill="#f26a4d" stroke="#f16a4d" stroke-linecap="round" stroke-linejoin="round" stroke-width="11"/>
    </g>
  </g>
  <g>
    <path d="m142.24,135.21h-43.47c.5-4.29,2.01-8.33,4.54-12.11,2.53-3.78,7.26-8.25,14.21-13.39,4.24-3.15,6.96-5.55,8.15-7.19,1.19-1.64,1.78-3.19,1.78-4.66,0-1.59-.59-2.95-1.76-4.07s-2.65-1.69-4.43-1.69-3.36.58-4.54,1.74c-1.17,1.16-1.96,3.21-2.37,6.15l-14.51-1.17c.57-4.08,1.61-7.26,3.13-9.55,1.52-2.29,3.66-4.04,6.42-5.26,2.76-1.22,6.59-1.83,11.47-1.83s9.06.58,11.9,1.74c2.83,1.16,5.06,2.95,6.69,5.35,1.62,2.41,2.44,5.1,2.44,8.09,0,3.18-.93,6.21-2.79,9.11s-5.25,6.07-10.16,9.53c-2.92,2.02-4.87,3.43-5.85,4.23s-2.14,1.86-3.47,3.17h22.62v11.81Z" fill="#f26a4d"/>
    <path d="m150.99,83.06h23.94c4.72,0,8.53.64,11.44,1.92s5.31,3.12,7.2,5.51c1.9,2.4,3.27,5.18,4.13,8.36s1.28,6.55,1.28,10.1c0,5.57-.63,9.89-1.9,12.97-1.27,3.07-3.03,5.64-5.28,7.72s-4.67,3.46-7.26,4.14c-3.53.95-6.73,1.42-9.6,1.42h-23.94v-52.15Zm16.11,11.81v28.49h3.95c3.37,0,5.76-.37,7.19-1.12,1.42-.75,2.54-2.05,3.34-3.91s1.21-4.88,1.21-9.05c0-5.53-.9-9.31-2.7-11.35s-4.79-3.06-8.96-3.06h-4.02Z" fill="#f26a4d"/>
  </g>
  <g>
    <path d="m115.68,190.43l-13.69-2.45c1.14-4.36,3.33-7.71,6.56-10.03s7.82-3.49,13.75-3.49c6.81,0,11.73,1.27,14.76,3.81,3.04,2.54,4.55,5.73,4.55,9.57,0,2.25-.62,4.29-1.85,6.12s-3.09,3.43-5.58,4.8c2.02.5,3.56,1.08,4.62,1.74,1.73,1.07,3.08,2.47,4.04,4.22s1.44,3.82,1.44,6.24c0,3.04-.79,5.95-2.38,8.73-1.59,2.79-3.88,4.93-6.87,6.44s-6.91,2.26-11.77,2.26-8.48-.56-11.22-1.67c-2.74-1.11-4.99-2.74-6.76-4.89s-3.12-4.84-4.07-8.09l14.48-1.92c.57,2.92,1.45,4.94,2.65,6.06s2.72,1.69,4.57,1.69c1.94,0,3.56-.71,4.86-2.13s1.94-3.32,1.94-5.69-.62-4.29-1.87-5.62c-1.24-1.33-2.93-1.99-5.07-1.99-1.14,0-2.7.28-4.7.85l.75-10.35c.81.12,1.43.18,1.89.18,1.9,0,3.48-.6,4.75-1.81s1.9-2.64,1.9-4.3-.47-2.86-1.42-3.81-2.25-1.42-3.91-1.42-3.09.52-4.16,1.55-1.79,2.84-2.17,5.42Z" fill="#f26a4d"/>
    <path d="m152.78,175.35h23.94c4.72,0,8.53.64,11.44,1.92,2.9,1.28,5.31,3.12,7.2,5.51,1.9,2.4,3.27,5.18,4.13,8.36s1.28,6.55,1.28,10.1c0,5.57-.63,9.89-1.9,12.97-1.27,3.07-3.03,5.64-5.28,7.72s-4.67,3.46-7.26,4.14c-3.53.95-6.73,1.42-9.6,1.42h-23.94v-52.15Zm16.11,11.81v28.49h3.95c3.37,0,5.76-.37,7.19-1.12,1.42-.75,2.54-2.05,3.34-3.91s1.21-4.88,1.21-9.05c0-5.53-.9-9.31-2.7-11.35s-4.79-3.06-8.96-3.06h-4.02Z" fill="#f26a4d"/>
  </g>
</svg>