<?xml version="1.0" encoding="UTF-8"?>
<svg id="Layer_1" data-name="Layer 1" xmlns="http://www.w3.org/2000/svg" viewBox="0 0 300 300">
  <g id="_42RDd5.tif" data-name="42RDd5.tif">
    <g>
      <path d="m136.12,32.85c20.95.3,45.67,9.34,67.14,27.26,1.4,1.17,1.76,2.2,1.31,4-2.22,8.96-1.75,17.85,1.36,26.55.71,1.98.67,3.62-.39,5.51-2.05,3.66-3.84,7.47-5.67,11.25-1.82,3.76-3.45,7.52-7.33,9.89-1.64,1-2.84,2.98-3.82,4.75-8.07,14.63-16.08,29.29-24,44.01-.92,1.71-1.89,2.64-3.84,2.91-22.85,3.15-35.94,20.47-38.33,41.28-.67,5.81-.3,11.76-1.14,17.54-3.06,21.03-26.21,33.02-45.13,23.21-28.67-14.87-48.13-37.87-57.55-68.74C1.66,126.33,28.29,67.61,81.34,43.14c14.42-6.65,31.11-10.24,54.78-10.29Zm.29,64.67c-.27,10.33,7.98,18.97,18.44,19.33,10.28.35,19.18-8.31,19.33-18.81.15-10.32-8.23-18.92-18.67-19.15-10.31-.23-18.84,8.09-19.11,18.63Zm-47.48-8.35c-10.61-.02-19.08,8.44-18.99,18.99.09,10.47,8.47,18.79,18.93,18.78,10.4,0,18.86-8.47,18.87-18.87,0-10.44-8.39-18.88-18.81-18.9Zm8.51,83.66c.01-10.52-8.27-18.9-18.71-18.93-10.38-.03-18.93,8.39-19.03,18.74-.1,10.52,8.38,19.01,18.99,19.01,10.53,0,18.74-8.25,18.75-18.82Z" fill="#f26a4d" stroke="#fff" stroke-miterlimit="10" stroke-width="3"/>
      <path d="m253.73,123.32c-2.48,6.02-4.85,11.59-7.04,17.22-.4,1.02-.07,2.33-.03,3.51.07,1.72.68,3.57.22,5.12-12.21,41.45-29.8,80.26-57.06,114.14-6.05,7.51-13.08,14.27-20.04,20.99-2.67,2.57-6.23,4.43-9.68,5.92-4.81,2.08-8.82.31-10.06-4.76-1.16-4.78-1.74-9.85-1.62-14.77.52-21.78,5.51-42.78,12.13-63.41,9.07-28.27,22.47-54.51,38.17-79.62.7-1.12,1.75-2.6,2.83-2.79,3.11-.53,3.88-2.91,5-5.14,2.31-4.63,4.63-9.25,6.95-13.87.04-.08.16-.11.48-.32,10.25,12.06,23.51,17.82,39.73,17.79Z" fill="#f26a4d" stroke="#fff" stroke-miterlimit="10" stroke-width="3"/>
      <path d="m291.46,52.68c-.17,12.39-1.61,24.59-6.16,36.21-6.01,15.33-22.04,24.62-38.61,22.61-16.2-1.97-29.67-15.38-31.72-31.6-2.22-17.54,7.93-32.97,25.09-38.16,1.31-.4,2.61-.85,3.94-1.14,10.04-2.16,17.42-8.05,23.05-16.4.87-1.3,1.7-2.63,2.56-3.93,2.48-3.73,5.35-4.4,9.28-2.15,3.9,2.22,6.45,5.61,8.3,9.61,3.66,7.93,4.21,16.39,4.26,24.94Z" fill="#f26a4d" stroke="#fff" stroke-miterlimit="10" stroke-width="3"/>
    </g>
  </g>
</svg>