<?xml version="1.0" encoding="UTF-8"?>
<svg id="Layer_1" data-name="Layer 1" xmlns="http://www.w3.org/2000/svg" viewBox="0 0 300 300">
  <g id="I62XXQ.tif">
    <g>
      <path d="m98.81,286.54c-.37-.26-.73-.54-1.12-.76-2.78-1.6-4.02-4.15-3.4-6.99.61-2.79,3.11-4.79,6.37-4.87,3.92-.09,7.84-.02,11.98-.02v-36.82h74.05v36.81c3.57,0,6.82,0,10.06,0,4.91,0,7.44,1.4,8.33,4.61.86,3.09-.46,5.47-4.45,8.03h-101.83Z" fill="#36bfdd"/>
      <path d="m291.71,175.24H7.89c-.06-1.15-.16-2.18-.16-3.2,0-47.72-.01-95.44,0-143.15,0-9.33,4.93-14.16,14.34-14.16,85.13,0,170.26,0,255.39,0,9.34,0,14.24,4.87,14.24,14.26.01,47.72,0,95.44,0,143.15v3.1Z" fill="#36bfdd"/>
      <path d="m291.71,187.86c0,4.84,0,9.64,0,14.43,0,3.08.05,6.17-.01,9.25-.18,8.17-5.17,13.08-13.29,13.08-33.94,0-67.87,0-101.81,0-51.68,0-103.35,0-155.03,0-8.92,0-13.78-4.79-13.83-13.69-.04-7.61,0-15.22,0-23.07h283.99Zm-142.05,24.29c3.43.02,6.05-2.56,6.08-5.98.03-3.43-2.55-6.05-5.98-6.08-3.44-.03-6.05,2.55-6.08,5.98-.03,3.43,2.55,6.06,5.98,6.08Z" fill="#36bfdd"/>
    </g>
  </g>
  <line x1="172.46" y1="48.25" x2="269.89" y2="48.25" fill="none" stroke="#fff" stroke-linecap="round" stroke-linejoin="round" stroke-width="5"/>
  <line x1="191.54" y1="39.4" x2="191.54" y2="57.11" fill="none" stroke="#fff" stroke-linecap="round" stroke-linejoin="round" stroke-width="5"/>
  <line x1="212.3" y1="67.87" x2="212.3" y2="85.57" fill="none" stroke="#fff" stroke-linecap="round" stroke-linejoin="round" stroke-width="5"/>
  <line x1="254.03" y1="96.34" x2="254.03" y2="114.04" fill="none" stroke="#fff" stroke-linecap="round" stroke-linejoin="round" stroke-width="5"/>
  <line x1="225.27" y1="124.81" x2="225.27" y2="142.51" fill="none" stroke="#fff" stroke-linecap="round" stroke-linejoin="round" stroke-width="5"/>
  <line x1="172.46" y1="76.72" x2="269.89" y2="76.72" fill="none" stroke="#fff" stroke-linecap="round" stroke-linejoin="round" stroke-width="5"/>
  <line x1="172.46" y1="105.19" x2="269.89" y2="105.19" fill="none" stroke="#fff" stroke-linecap="round" stroke-linejoin="round" stroke-width="5"/>
  <line x1="172.46" y1="133.66" x2="269.89" y2="133.66" fill="none" stroke="#fff" stroke-linecap="round" stroke-linejoin="round" stroke-width="5"/>
  <g id="YHRZrd.tif">
    <g>
      <path d="m71.92,79.77c0-2.64,0-5.17,0-7.71,0-1.76-.01-3.53,0-5.29,0-.44-.12-.71-.48-1-5.02-4.13-7.94-9.41-8.42-15.92-.59-7.96,2.44-14.42,8.57-19.41,6.93-5.63,16.97-6.38,24.76-2,6.75,3.79,10.58,9.65,11.45,17.21.94,8.16-2.09,14.91-8.39,20.19-.2.17-.4.48-.4.73-.02,4.3-.02,8.61-.01,12.91,0,.07.02.13.05.29.27,0,.54,0,.81,0,6.44,0,12.89,0,19.33,0,2.94,0,5.68.74,8.14,2.36,2.47,1.62,4.06,3.94,5.1,6.66,3.16,8.31,6.31,16.63,9.46,24.95.63,1.67,1.29,3.33,1.87,5.01.23.68.37,1.42.38,2.13.03,5.71.03,11.43.01,17.14-.02,6.34-3.73,11.49-9.68,13.32-1.33.41-2.77.63-4.16.63-29.87.03-59.73.03-89.6.02-6.7,0-12.14-4.31-13.58-10.73-.24-1.09-.35-2.23-.36-3.36-.04-5.46-.04-10.91,0-16.37,0-1.01.18-2.08.53-3.02,3.68-9.9,7.38-19.79,11.15-29.65,2.23-5.85,7.06-9.1,13.34-9.11,6.4-.01,12.79,0,19.19,0,.28,0,.56,0,.92,0Zm0,9.06c-.19-.02-.28-.03-.37-.03-6.91,0-13.83,0-20.74.02-.55,0-1.12.17-1.63.38-1.44.59-2.13,1.83-2.65,3.21-3.43,9.16-6.88,18.32-10.3,27.49-.24.64-.42,1.36-.42,2.04-.03,5.48-.02,10.96-.02,16.44,0,2.62,2.02,4.62,4.65,4.61.49,0,.99,0,1.48,0,29.51,0,59.02,0,88.53,0,2.83,0,4.68-1.85,4.68-4.68,0-5.27-.01-10.53.01-15.8,0-.98-.16-1.9-.51-2.81-2.35-6.23-4.68-12.48-7.03-18.71-1.17-3.12-2.31-6.25-3.56-9.34-.77-1.89-2.24-2.86-4.35-2.86-6.63.02-13.26,0-19.89,0h-.8v.85c0,4.07.01,8.14,0,12.2-.01,2.77-1.13,5.02-3.41,6.61-.84.58-1.76,1.11-2.71,1.48-5.27,2.03-10.55,1.94-15.7-.34-3.44-1.52-5.29-4.23-5.27-8.1.03-3.95,0-7.9,0-11.85,0-.25,0-.51,0-.82Zm0-40.55c-.22,6.57,5.64,13.72,14.1,13.45,6.69-.21,13.1-6.02,13.03-13.7-.07-7.48-6.37-13.59-13.83-13.46-7.43.13-13.54,6.56-13.3,13.7Zm9.09,21.95c-.03.15-.05.21-.05.28,0,10.16,0,20.31-.02,30.47,0,.51.26.64.64.76,2.51.79,5.02.82,7.56.09.66-.19.86-.5.86-1.17-.02-9.9-.02-19.8-.02-29.69,0-.23,0-.46,0-.76-3.02.67-5.98.66-8.98.03Z" fill="#fff"/>
      <path d="m85.47,129.43c-11.9,0-23.79,0-35.69,0-2.33,0-4.05-1.15-4.68-3.13-.83-2.59.68-5.2,3.35-5.74.48-.1.98-.15,1.47-.15,23.74,0,47.49,0,71.23,0,2.26,0,3.83.99,4.57,2.86,1.02,2.61-.43,5.38-3.16,6-.52.12-1.07.16-1.61.16-11.83,0-23.65,0-35.48,0Z" fill="#fff"/>
    </g>
  </g>
</svg>