<?xml version="1.0" encoding="UTF-8"?>
<svg id="Layer_1" data-name="Layer 1" xmlns="http://www.w3.org/2000/svg" viewBox="0 0 300 300">
  <g id="_45gBmt.tif" data-name="45gBmt.tif">
    <path d="m150.72,114.38c47.8.39,86.08,38.61,85.79,86.66-.28,47.42-38.85,86.45-88.11,85.35-46.85-1.04-85.26-39.71-83.82-88.64,1.36-46.2,38.9-83.1,86.14-83.37Zm-11.66,74.57c-.5,0-.85,0-1.21,0-8.25,0-16.49,0-24.74.01-.83,0-1.68.06-2.49.25-5.7,1.33-9.47,6.69-8.82,12.51.61,5.47,5.95,10.18,11.56,10.18,8.19,0,16.37,0,24.56,0,.35,0,.7,0,1.14,0v1.14c0,8.36,0,16.73.01,25.09,0,.74.08,1.5.24,2.22,1.33,5.7,6.74,9.46,12.62,8.8,5.53-.62,10.07-5.81,10.07-11.5,0-8.21,0-16.43,0-24.65,0-.35,0-.69,0-1.1.38,0,.64,0,.9,0,8.07,0,16.13,0,24.2,0,.86,0,1.73-.04,2.58-.18,5.79-.93,10.02-6.38,9.59-12.3-.43-5.81-5.5-10.46-11.41-10.47-8.25,0-16.49,0-24.74,0-.35,0-.7,0-1.13,0v-1.15c0-8.24,0-16.49,0-24.73,0-.42.01-.84-.03-1.25-.69-6.19-6.03-10.53-12.49-10.14-5.43.32-10.42,5.81-10.42,11.47,0,8.21,0,16.43,0,24.65v1.16Z" fill="#36bfdd"/>
  </g>
  <g>
    <path d="m9.07,17.06h32.74c6.45,0,11.67.88,15.64,2.63,3.97,1.75,7.25,4.26,9.85,7.54,2.59,3.28,4.47,7.09,5.64,11.43,1.17,4.35,1.75,8.95,1.75,13.81,0,7.62-.87,13.53-2.6,17.73-1.73,4.2-4.14,7.72-7.22,10.56-3.08,2.84-6.39,4.73-9.92,5.67-4.83,1.3-9.21,1.95-13.13,1.95H9.07V17.06Zm22.03,16.15v38.96h5.4c4.6,0,7.88-.51,9.83-1.53,1.95-1.02,3.47-2.8,4.57-5.35,1.1-2.55,1.65-6.67,1.65-12.38,0-7.56-1.23-12.73-3.7-15.52-2.46-2.79-6.55-4.18-12.26-4.18h-5.5Z" fill="#36bfdd"/>
    <path d="m125.82,76.6h-25.02l-3.48,11.77h-22.5l26.8-71.31h24.04l26.79,71.31h-23.07l-3.57-11.77Zm-4.57-15.42l-7.87-25.63-7.79,25.63h15.66Z" fill="#36bfdd"/>
    <path d="m147.6,17.06h66.98v17.61h-22.47v53.7h-22.03v-53.7h-22.47v-17.61Z" fill="#36bfdd"/>
    <path d="m261.63,76.6h-25.02l-3.48,11.77h-22.5l26.8-71.31h24.04l26.79,71.31h-23.07l-3.57-11.77Zm-4.57-15.42l-7.87-25.63-7.79,25.63h15.66Z" fill="#36bfdd"/>
  </g>
</svg>