<?xml version="1.0" encoding="UTF-8"?>
<svg id="Layer_1" data-name="Layer 1" xmlns="http://www.w3.org/2000/svg" viewBox="0 0 300 300">
  <rect x="13.68" y="37.92" width="272.64" height="235.24" rx="15.34" ry="15.34" fill="#f1c269"/>
  <rect x="24.74" y="49.13" width="136.32" height="111.14" rx="15.34" ry="15.34" fill="#edd5ae"/>
  <g>
    <path d="m85.93,132.58h-45.67c.52-4.51,2.11-8.75,4.77-12.73,2.65-3.97,7.63-8.67,14.93-14.07,4.46-3.31,7.31-5.83,8.56-7.55,1.25-1.72,1.87-3.35,1.87-4.9,0-1.67-.62-3.1-1.85-4.28s-2.78-1.78-4.65-1.78-3.53.61-4.77,1.83-2.06,3.38-2.49,6.47l-15.25-1.23c.6-4.29,1.69-7.63,3.29-10.04,1.59-2.4,3.84-4.25,6.75-5.53,2.9-1.28,6.92-1.92,12.05-1.92s9.52.61,12.5,1.83,5.32,3.1,7.03,5.63c1.71,2.53,2.56,5.36,2.56,8.5,0,3.34-.98,6.53-2.93,9.57s-5.51,6.38-10.67,10.02c-3.06,2.12-5.11,3.6-6.15,4.45s-2.25,1.96-3.64,3.33h23.77v12.41Z" fill="#fff"/>
    <path d="m95.12,77.79h25.15c4.96,0,8.96.67,12.02,2.02,3.05,1.35,5.58,3.28,7.57,5.79,1.99,2.52,3.44,5.44,4.34,8.78.9,3.34,1.35,6.88,1.35,10.61,0,5.86-.67,10.4-2,13.62-1.33,3.23-3.18,5.93-5.55,8.11s-4.91,3.63-7.62,4.35c-3.71,1-7.08,1.5-10.09,1.5h-25.15v-54.79Zm16.93,12.41v29.94h4.15c3.54,0,6.05-.39,7.55-1.18,1.5-.78,2.67-2.16,3.51-4.11.85-1.96,1.27-5.13,1.27-9.51,0-5.81-.95-9.78-2.84-11.92-1.89-2.14-5.03-3.21-9.42-3.21h-4.22Z" fill="#fff"/>
  </g>
  <g>
    <path d="m162.98,199.15l-14.39-2.58c1.2-4.58,3.49-8.1,6.9-10.54,3.4-2.44,8.22-3.66,14.45-3.66,7.15,0,12.32,1.33,15.51,4,3.19,2.67,4.78,6.02,4.78,10.05,0,2.37-.65,4.51-1.94,6.43-1.3,1.92-3.25,3.6-5.87,5.05,2.12.52,3.74,1.13,4.86,1.83,1.82,1.12,3.23,2.6,4.24,4.43s1.51,4.02,1.51,6.56c0,3.19-.83,6.25-2.5,9.18s-4.07,5.18-7.21,6.77c-3.14,1.58-7.26,2.37-12.37,2.37s-8.91-.59-11.79-1.76c-2.88-1.17-5.25-2.88-7.1-5.14-1.86-2.26-3.28-5.09-4.28-8.5l15.21-2.02c.6,3.06,1.53,5.19,2.78,6.37,1.26,1.18,2.86,1.78,4.8,1.78,2.04,0,3.74-.75,5.1-2.24s2.04-3.49,2.04-5.98-.65-4.51-1.96-5.91c-1.31-1.4-3.08-2.09-5.33-2.09-1.2,0-2.84.3-4.93.9l.78-10.88c.85.12,1.51.19,1.98.19,1.99,0,3.66-.64,4.99-1.91s2-2.78,2-4.52-.5-3-1.5-4-2.37-1.5-4.11-1.5-3.25.54-4.37,1.63c-1.12,1.08-1.88,2.98-2.28,5.7Z" fill="#fff"/>
    <path d="m201.96,183.3h25.15c4.96,0,8.96.67,12.02,2.02,3.05,1.35,5.58,3.28,7.57,5.79s3.44,5.44,4.34,8.78,1.35,6.88,1.35,10.61c0,5.86-.67,10.4-2,13.62s-3.18,5.93-5.55,8.11c-2.37,2.18-4.91,3.63-7.62,4.35-3.71,1-7.08,1.5-10.09,1.5h-25.15v-54.79Zm16.93,12.41v29.94h4.15c3.54,0,6.05-.39,7.55-1.18s2.67-2.16,3.51-4.11,1.27-5.13,1.27-9.51c0-5.81-.95-9.78-2.84-11.92s-5.03-3.21-9.42-3.21h-4.22Z" fill="#fff"/>
  </g>
</svg>