<?xml version="1.0" encoding="UTF-8"?>
<svg id="Layer_1" data-name="Layer 1" xmlns="http://www.w3.org/2000/svg" viewBox="0 0 300 300">
  <polygon points="161.73 271.94 6.39 177.79 142.37 74.02 297.71 168.16 161.73 271.94" fill="#36bfdd"/>
  <polygon points="155.69 208.03 117.28 182.73 152.67 157.76 191.08 183.06 155.69 208.03" fill="#fff"/>
  <g id="_6iMIZH.tif" data-name="6iMIZH.tif">
    <g>
      <path d="m23.61,55.41c.38.2.59.3.79.41,8.81,5.03,17.63,10.05,26.43,15.08,5.46,3.12,10.91,6.27,16.37,9.39,7.73,4.43,15.47,8.85,23.22,13.26.44.25.64.56.63,1.07-.02.79.02,1.58.02,2.36,0,23.5,0,47.01,0,70.51,0,1.04,0,2.08,0,3.3-.41-.2-.61-.29-.81-.4-6.43-3.66-12.85-7.31-19.27-10.97-5.3-3.03-10.59-6.09-15.89-9.12-8.36-4.77-16.72-9.52-25.08-14.29-1.96-1.12-3.92-2.23-5.84-3.41-.3-.18-.52-.7-.55-1.08-.07-1.02-.02-2.05-.02-3.07,0-23.53,0-47.06,0-70.59,0-.75,0-1.51,0-2.45Z" fill="#36bfdd" stroke="#fff" stroke-miterlimit="10" stroke-width="9"/>
      <path d="m100.33,170.95c0-.83,0-1.43,0-2.02,0-24.32.02-48.65-.03-72.97,0-1.46.37-2.21,1.7-2.95,9.76-5.48,19.46-11.09,29.18-16.65,7.76-4.44,15.53-8.87,23.29-13.3,4.19-2.39,8.37-4.8,12.55-7.2.18-.1.36-.19.63-.33.04.26.1.45.1.63.02,1.21.05,2.42.05,3.62,0,22.75,0,45.5,0,68.24,0,1.21-.03,2.42-.02,3.62,0,.5-.17.8-.63,1.06-21.43,12.24-42.86,24.49-64.28,36.74-.79.45-1.57.93-2.54,1.51Z" fill="#36bfdd" stroke="#fff" stroke-miterlimit="10" stroke-width="9"/>
      <path d="m28.4,47.33c.95-.54,1.72-.98,2.49-1.42,15.62-8.93,31.23-17.87,46.85-26.79,4.92-2.81,9.89-5.53,14.76-8.41,2.21-1.31,4.19-1.32,6.41-.04,10.13,5.84,20.31,11.6,30.47,17.4,7.88,4.5,15.76,8.99,23.63,13.5,3.27,1.88,6.53,3.79,9.92,5.76-.44.26-.78.46-1.12.66-17.35,9.92-34.69,19.84-52.04,29.77-4.46,2.55-8.93,5.1-13.38,7.66-.47.27-.82.27-1.3,0-7.8-4.48-15.61-8.93-23.42-13.4-13.5-7.71-27.01-15.43-40.51-23.14-.86-.49-1.72-.97-2.76-1.55Z" fill="#36bfdd" stroke="#fff" stroke-miterlimit="10" stroke-width="9"/>
    </g>
  </g>
  <line x1="95.66" y1="90.33" x2="95.66" y2="172.98" fill="none" stroke="#fff" stroke-miterlimit="10" stroke-width="7"/>
</svg>