<?xml version="1.0" encoding="UTF-8"?>
<svg id="Layer_1" data-name="Layer 1" xmlns="http://www.w3.org/2000/svg" viewBox="0 0 300 300">
  <path d="m298.57,65.99v45.11c-.22.6-.55,1.19-.65,1.81-3.9,25.29-26.09,44.51-51.6,44.61-14.04.05-28.07-.1-42.11.06-6.82.08-12.61-2.24-17.36-6.87-2.89-2.83-5.43-6.11-7.69-9.48-11.81-17.57-36.86-20.9-52.44-6.57-3.6,3.31-6.22,7.69-9.31,11.57-5.9,7.4-13.17,11.74-23.05,11.38-9.82-.35-19.67,0-29.5-.1-6.17-.06-12.41.12-18.51-.69-25.15-3.33-44.78-25.89-44.89-51.25-.05-11.05-.03-22.11,0-33.16.06-29.25,23.62-52.82,52.91-52.83,63.77-.03,127.54-.02,191.3,0,24.31,0,45.53,16.59,51.39,40.06.53,2.11,1.01,4.24,1.51,6.35Zm-67.51-25.22c-3.54,0-7.07-.02-10.61,0-4.14.03-6.69,2.04-6.74,5.24-.05,3.22,2.52,5.35,6.61,5.38,6.3.04,12.6,0,18.9.01,15.53.02,26.57,10.39,27.51,25.85.22,3.6,2.39,6,5.39,5.95,3.14-.05,5.29-2.69,5.2-6.42-.35-14.57-10.06-28.15-23.71-33.43-7.32-2.83-14.92-2.67-22.54-2.59Zm46.25,58.35c-.02-2.74-2.58-5.27-5.31-5.24-2.74.02-5.26,2.57-5.24,5.31.02,2.74,2.57,5.27,5.3,5.24,2.73-.02,5.26-2.59,5.24-5.31Z" fill="#35a591"/>
  <g id="_6VgZkl.tif" data-name="6VgZkl.tif">
    <path d="m116,248.66c.4-1.4.8-2.8,1.19-4.2,3.34-11.98,6.67-23.97,10-35.95,1.97-7.08,3.94-14.17,5.88-21.26.18-.64.43-.91,1.12-.91,5.81.02,11.63.03,17.44,0,.9,0,1.23.21,1.41,1.17,1.2,6.44,2.49,12.87,3.75,19.3,1.65,8.44,3.29,16.89,4.94,25.33,2.11,10.78,4.22,21.55,6.33,32.33.16.81.35,1.61.52,2.41.07,0,.14,0,.21,0,.03-.52.08-1.04.08-1.56-.01-7.18-.05-14.35-.05-21.53,0-17.76,0-35.52,0-53.28,0-1.16-.03-2.33-.07-3.49-.02-.52.15-.73.71-.73,10.99.05,22-.23,32.97.2,14.46.57,25.59,9.87,29.46,22.14,3.3,10.47,1.23,20.05-5.51,28.66-4.07,5.19-9.43,8.45-15.62,10.46-.1.03-.19.06-.46.15,8.84,9.11,17.61,18.14,26.49,27.3-4.72,4.62-9.41,9.21-14.19,13.89-11.24-11.58-22.45-23.12-33.67-34.66-.07.03-.13.07-.2.1-.01.26-.04.52-.04.79,0,10.89-.02,21.78-.02,32.67,0,1.18,0,1.16-1.19,1.15-10.3-.04-20.6-.07-30.9-.09-1.08,0-2.16.05-3.24.09-.49.02-.72-.11-.83-.66-2.6-13.44-5.22-26.88-7.84-40.31-1-5.1-2-10.2-2.99-15.31-.07-.34-.08-.69-.28-1.07-.15.37-.33.72-.44,1.1-3.66,13.07-7.31,26.15-10.96,39.22-1.46,5.22-2.91,10.44-4.34,15.67-.17.61-.55.67-1.06.66-3.9-.03-7.81-.06-11.71-.07-1.72,0-3.43.04-5.15.09-.61.02-.91-.17-1.1-.82-5.31-18.09-10.65-36.17-15.98-54.26-.13-.44-.23-.9-.53-1.38-.11.34-.26.67-.32,1.01-1.28,7.05-2.54,14.1-3.81,21.15-1.47,8.19-2.95,16.39-4.41,24.59-.66,3.68-1.3,7.36-1.93,11.04-.12.7-.31.92-1.12.77-5.95-1.11-11.92-2.15-17.88-3.2-.44-.08-.81-.08-.69-.73.99-5.36,1.95-10.72,2.92-16.08,2-11.11,3.99-22.21,5.99-33.32,1.69-9.36,3.4-18.72,5.1-28.08.94-5.17,1.87-10.34,2.79-15.51.39-2.18.76-4.36,1.12-6.54.08-.49.26-.75.79-.75.64,0,1.27-.03,1.91-.03,5.18,0,10.36-.01,15.53.01,1.33,0,1.33.05,1.7,1.33,2.77,9.41,5.54,18.83,8.32,28.24,3.03,10.26,6.06,20.52,9.09,30.78.19.66.4,1.31.6,1.96.06,0,.12.01.18.02Zm72.68-30.86h0c0,3.57.01,7.15-.01,10.72,0,.68.19.91.89.91,3.63-.03,7.25-.04,10.88,0,2.73.03,5.23-.68,7.56-2.1,5.5-3.36,7.17-9.94,3.73-15.25-2.32-3.58-5.79-5.47-10-5.68-4.12-.2-8.25-.09-12.37-.14-.68,0-.67.36-.67.84,0,3.57,0,7.15,0,10.72Z" fill="#35a591"/>
  </g>
</svg>