<?xml version="1.0" encoding="UTF-8"?>
<svg id="Layer_1" data-name="Layer 1" xmlns="http://www.w3.org/2000/svg" viewBox="0 0 300 300">
  <g id="_6iMIZH.tif" data-name="6iMIZH.tif">
    <g>
      <path d="m78.55,159.44c.43.22.66.34.88.46,9.85,5.61,19.69,11.22,29.53,16.85,6.1,3.49,12.19,7,18.29,10.5,8.64,4.95,17.29,9.89,25.94,14.82.49.28.72.62.71,1.19-.02.88.02,1.76.02,2.64,0,26.26,0,52.52,0,78.78,0,1.16,0,2.33,0,3.68-.46-.22-.69-.32-.9-.44-7.18-4.08-14.36-8.16-21.53-12.26-5.93-3.39-11.83-6.81-17.76-10.19-9.34-5.33-18.68-10.64-28.02-15.96-2.19-1.25-4.38-2.5-6.52-3.82-.33-.21-.58-.78-.61-1.21-.08-1.14-.03-2.29-.03-3.43,0-26.29,0-52.58,0-78.87,0-.84,0-1.68,0-2.74Z" fill="#36bfdd"/>
      <path d="m164.27,288.53c0-.93,0-1.6,0-2.26,0-27.18.02-54.36-.03-81.53,0-1.63.41-2.47,1.9-3.3,10.91-6.12,21.74-12.39,32.6-18.6,8.67-4.96,17.35-9.91,26.03-14.86,4.68-2.67,9.35-5.36,14.02-8.04.2-.11.4-.22.7-.37.05.29.11.5.11.71.03,1.35.06,2.7.06,4.05,0,25.42,0,50.83,0,76.25,0,1.35-.04,2.7-.03,4.05,0,.56-.2.9-.7,1.19-23.95,13.67-47.88,27.36-71.82,41.05-.88.5-1.75,1.04-2.84,1.68Z" fill="#36bfdd"/>
      <path d="m83.9,150.41c1.06-.61,1.92-1.1,2.78-1.59,17.45-9.98,34.89-19.96,52.34-29.93,5.49-3.14,11.04-6.18,16.49-9.4,2.47-1.46,4.68-1.47,7.16-.04,11.32,6.52,22.69,12.96,34.04,19.44,8.8,5.02,17.61,10.05,26.4,15.09,3.66,2.1,7.29,4.23,11.09,6.43-.49.29-.87.52-1.26.74-19.38,11.09-38.76,22.17-58.14,33.26-4.98,2.85-9.98,5.69-14.95,8.56-.53.3-.92.3-1.45,0-8.72-5-17.45-9.98-26.17-14.97-15.09-8.62-30.17-17.24-45.26-25.85-.96-.55-1.93-1.09-3.08-1.74Z" fill="#36bfdd"/>
    </g>
  </g>
  <g id="lkvsWb.tif">
    <g>
      <path d="m228.72,205.43c-5.11-1.94-10.25-3.8-15.31-5.85-24.19-9.8-46.94-22.33-68.65-36.75-18.42-12.23-35.89-25.66-51.75-41.13-.49-.48-1.09-.85-1.52-1.19,2.37-2.34,4.5-4.45,6.66-6.57,32.98,31.56,71.01,55.99,112.84,75.65-.19-2.69-.49-4.96-.46-7.23.03-2.6-1.14-3.87-3.48-4.97-24.18-11.4-46.85-25.33-68.32-41.23-11.46-8.49-22.44-17.57-32.67-27.52-.49-.48-1.01-.93-1.39-1.28,11.03-11.02,21.95-21.93,33.26-33.22.17.29.4.93.84,1.37,25.54,25.57,51.07,51.15,76.67,76.66,6.95,6.93,11.7,14.95,13.05,24.75.45,3.24.66,6.53.7,9.79.08,6.23-.04,12.47-.08,18.71h-.38Z" fill="#36bfdd" stroke="#fff" stroke-miterlimit="10" stroke-width="2"/>
      <path d="m130.43,67.6c-8.63,8.63-17.3,17.31-26.06,26.08-.38-.36-.89-.82-1.37-1.3-11.1-11.1-22.21-22.19-33.28-33.33-.99-1-1.94-1.31-3.31-1.2-11.86.93-22.99-8.24-24.25-19.92-1.38-12.71,6.88-23.98,18.97-25.94,7.36-1.19,14.14.34,19.42,5.55,16.77,16.57,33.3,33.39,49.87,50.06Zm-58.37-32.89c0-3.8-3.01-6.82-6.8-6.85-3.92-.03-6.94,2.97-6.93,6.89,0,3.91,3.03,6.88,6.97,6.84,3.79-.04,6.77-3.07,6.76-6.88Z" fill="#36bfdd" stroke="#fff" stroke-miterlimit="10" stroke-width="2"/>
    </g>
    <path d="m98.13,113.95s50.57,48.79,112.84,75.65l-.46-7.23s.69-2.97-3.48-4.97c0,0-69.9-35.92-100.99-68.76l-7.91,5.3Z" fill="#fff"/>
  </g>
</svg>