<?xml version="1.0" encoding="UTF-8"?>
<svg id="Layer_1" data-name="Layer 1" xmlns="http://www.w3.org/2000/svg" viewBox="0 0 300 300">
  <g id="_6iMIZH.tif" data-name="6iMIZH.tif">
    <g>
      <path d="m77.91,115.08c.38.2.59.3.79.41,8.81,5.03,17.63,10.05,26.43,15.08,5.46,3.12,10.91,6.27,16.37,9.39,7.73,4.43,15.47,8.85,23.22,13.26.44.25.64.56.63,1.07-.02.79.02,1.58.02,2.36,0,23.5,0,47.01,0,70.51,0,1.04,0,2.08,0,3.3-.41-.2-.61-.29-.81-.4-6.43-3.66-12.85-7.31-19.27-10.97-5.3-3.03-10.59-6.09-15.89-9.12-8.36-4.77-16.72-9.52-25.08-14.29-1.96-1.12-3.92-2.23-5.84-3.41-.3-.18-.52-.7-.55-1.08-.07-1.02-.02-2.05-.02-3.07,0-23.53,0-47.06,0-70.59,0-.75,0-1.51,0-2.45Z" fill="#36bfdd" stroke="#fff" stroke-miterlimit="10" stroke-width="3"/>
      <path d="m154.64,230.62c0-.83,0-1.43,0-2.02,0-24.32.02-48.65-.03-72.97,0-1.46.37-2.21,1.7-2.95,9.76-5.48,19.46-11.09,29.18-16.65,7.76-4.44,15.53-8.87,23.29-13.3,4.19-2.39,8.37-4.8,12.55-7.2.18-.1.36-.19.63-.33.04.26.1.45.1.63.02,1.21.05,2.42.05,3.62,0,22.75,0,45.5,0,68.24,0,1.21-.03,2.42-.02,3.62,0,.5-.17.8-.63,1.06-21.43,12.24-42.86,24.49-64.28,36.74-.79.45-1.57.93-2.54,1.51Z" fill="#36bfdd" stroke="#fff" stroke-miterlimit="10" stroke-width="3"/>
      <path d="m82.7,107c.95-.54,1.72-.98,2.49-1.42,15.62-8.93,31.23-17.87,46.85-26.79,4.92-2.81,9.89-5.53,14.76-8.41,2.21-1.31,4.19-1.32,6.41-.04,10.13,5.84,20.31,11.6,30.47,17.4,7.88,4.5,15.76,8.99,23.63,13.5,3.27,1.88,6.53,3.79,9.92,5.76-.44.26-.78.46-1.12.66-17.35,9.92-34.69,19.84-52.04,29.77-4.46,2.55-8.93,5.1-13.38,7.66-.47.27-.82.27-1.3,0-7.8-4.48-15.61-8.93-23.42-13.4-13.5-7.71-27.01-15.43-40.51-23.14-.86-.49-1.72-.97-2.76-1.55Z" fill="#36bfdd" stroke="#fff" stroke-miterlimit="10" stroke-width="3"/>
    </g>
  </g>
  <g id="kkl3RF.tif">
    <g>
      <path d="m158.71,253.45c0,.42,0,.84,0,1.26,0,10.34,0,20.68.01,31.02,0,1.54-.39,2.89-1.65,3.82-1.4,1.04-2.92,1.19-4.48.38-1.48-.77-2.14-2.09-2.21-3.71-.06-1.36,0-2.73,0-4.09,0-9.24,0-18.48,0-27.72,0-.23,0-.45,0-.84-.24.24-.38.38-.52.52-3.57,3.58-7.14,7.17-10.71,10.76-.82.82-1.73,1.41-2.91,1.52-1.57.15-3.2-.76-3.97-2.25-.83-1.6-.7-3.25.43-4.54.69-.79,1.46-1.52,2.2-2.27,3.59-3.64,7.19-7.27,10.77-10.92,2.41-2.46,5.31-3.84,8.71-3.94,3.34-.1,6.35,1.01,8.76,3.38,3.62,3.56,7.14,7.22,10.7,10.83.84.85,1.7,1.68,2.5,2.57,2.21,2.46,1.13,6.23-2,7.02-1.18.3-2.29.1-3.28-.63-.41-.3-.79-.64-1.15-1.01-3.55-3.6-7.1-7.21-10.65-10.82-.13-.13-.23-.3-.35-.45-.07.04-.13.07-.2.11Z" fill="#36bfdd"/>
      <path d="m145.74,46.39c0-.2,0-.41,0-.61,0-10.35-.01-20.71,0-31.06,0-.73.05-1.5.27-2.19.63-1.93,2.59-3.08,4.52-2.76,2.06.34,3.5,1.99,3.54,4.11.02.92,0,1.84,0,2.76,0,9.89.01,19.79.02,29.68,0,.12.02.23.04.48.32-.32.57-.55.81-.8,3.47-3.53,6.95-7.06,10.42-10.6.86-.87,1.8-1.58,3.07-1.65,1.61-.09,2.91.54,3.78,1.91.89,1.41.95,2.9.15,4.37-.24.44-.62.81-.97,1.17-3.91,4.02-7.82,8.04-11.73,12.05-1.85,1.89-3.94,3.39-6.54,4-4.66,1.1-8.69-.15-12.07-3.53-3.73-3.73-7.41-7.5-11.11-11.25-.52-.53-1.05-1.04-1.55-1.58-1.77-1.91-1.65-4.14-.07-5.84,1.64-1.76,4.1-1.82,5.84-.1,3.75,3.71,7.44,7.47,11.16,11.2.1.1.2.19.29.28.05-.02.1-.03.14-.05Z" fill="#36bfdd"/>
    </g>
  </g>
</svg>