<?xml version="1.0" encoding="UTF-8"?>
<svg id="Layer_1" data-name="Layer 1" xmlns="http://www.w3.org/2000/svg" viewBox="0 0 300 300">
  <g>
    <path d="m48.41,107.22L14.68,231.63c-1.19,4.4,1.7,8.86,6.2,9.57l86.76,13.68c1.05.16,2.11.11,3.14-.16l94.61-24.83c1.09-.29,2.23-.33,3.34-.12l76.08,14.16c5.48,1.02,10.18-3.98,8.83-9.39l-31.78-127.11c-.98-3.93-4.86-6.42-8.85-5.67l-94.53,17.82c-.92.17-1.87.18-2.79,0l-98.52-17.91c-3.91-.71-7.72,1.69-8.76,5.53Z" fill="#f26a4d"/>
    <g>
      <path d="m23.72,173.8s1.64,1.49,4.63,3.81" fill="none" stroke="#fff" stroke-linecap="round" stroke-miterlimit="10" stroke-width="5"/>
      <path d="m38.54,184.86c15.07,9.81,39.91,22.22,66.35,19.64,42.66-4.16,82.73-30.18,118.11-30.7,21.24-.31,39.29,3.69,50.33,6.94" fill="none" stroke="#fff" stroke-dasharray="0 0 12.51 12.51" stroke-linecap="round" stroke-miterlimit="10" stroke-width="5"/>
      <path d="m279.29,182.63c3.62,1.24,5.62,2.1,5.62,2.1" fill="none" stroke="#fff" stroke-linecap="round" stroke-miterlimit="10" stroke-width="5"/>
    </g>
  </g>
  <g>
    <path d="m199.29,77.07c0,26.37-26.2,53.38-47.75,85.85-22.88-31.14-47.75-59.48-47.75-85.85s21.38-47.75,47.75-47.75,47.75,21.38,47.75,47.75Z" fill="#fff" stroke="#f26a4d" stroke-miterlimit="10" stroke-width="10"/>
    <circle cx="151.54" cy="79.71" r="22.52" fill="#f26a4d"/>
  </g>
</svg>